<svg width="507" height="500" viewBox="0 0 507 500" fill="none" xmlns="http://www.w3.org/2000/svg">
<g clip-path="url(#clip0_31_168)">
<path opacity="0.4" d="M156.021 496.44L55.4152 437.59C46.8981 432.59 47.964 423.9 57.8035 418.14L300.821 276C310.69 270.24 325.543 269.62 334.06 274.6L434.666 333.45C443.183 338.45 442.118 347.15 432.278 352.9L189.26 495.05C179.421 500.8 164.538 501.43 156.021 496.44Z" fill="#D6D8E5"/>
<path d="M168.762 488.7L68.1663 429.85C59.6394 424.85 60.7151 416.15 70.5546 410.4L313.562 268.23C323.431 262.48 338.235 261.85 346.811 266.84L447.408 325.69C455.925 330.69 454.859 339.38 445.019 345.14L202.011 487.3C192.172 493.06 177.289 493.68 168.762 488.7Z" fill="#B1B4C4"/>
<path d="M62.4124 421.27V411.89L73.2783 416.04L62.4124 421.27Z" fill="#B1B4C4"/>
<path d="M453.161 333.81V324.79L444.526 330.43L453.161 333.81Z" fill="#B1B4C4"/>
<path d="M168.762 480.75L68.1663 421.9C59.6394 416.9 60.7151 408.21 70.5546 402.45L313.562 260.29C323.431 254.53 338.235 253.91 346.811 258.89L447.408 317.74C455.925 322.74 454.859 331.44 445.019 337.19L202.011 479.36C192.172 485.11 177.289 485.74 168.762 480.75Z" fill="#616E84"/>
<path d="M80.3045 433.962C80.819 433.661 80.8185 432.684 80.3034 431.78C79.7884 430.876 78.9537 430.387 78.4392 430.688C77.9247 430.989 77.9251 431.966 78.4402 432.87C78.9553 433.774 79.7899 434.263 80.3045 433.962Z" fill="#8996A6"/>
<path d="M85.1475 436.798C85.662 436.497 85.6615 435.52 85.1464 434.616C84.6314 433.712 83.7967 433.223 83.2822 433.524C82.7677 433.825 82.7681 434.802 83.2832 435.706C83.7983 436.61 84.6329 437.099 85.1475 436.798Z" fill="#8996A6"/>
<path d="M89.9905 439.624C90.505 439.323 90.5045 438.346 89.9895 437.442C89.4744 436.538 88.6397 436.049 88.1252 436.35C87.6107 436.651 87.6112 437.628 88.1262 438.532C88.6413 439.436 89.476 439.925 89.9905 439.624Z" fill="#8996A6"/>
<path d="M94.8301 442.463C95.3446 442.162 95.3442 441.186 94.8291 440.282C94.314 439.378 93.4793 438.889 92.9648 439.19C92.4503 439.491 92.4508 440.468 92.9658 441.372C93.4809 442.276 94.3156 442.764 94.8301 442.463Z" fill="#8996A6"/>
<path d="M136.414 466.78C136.928 466.479 136.928 465.502 136.413 464.598C135.898 463.694 135.063 463.205 134.549 463.506C134.034 463.807 134.035 464.784 134.55 465.688C135.065 466.592 135.899 467.081 136.414 466.78Z" fill="#8996A6"/>
<path d="M141.249 469.621C141.763 469.32 141.763 468.343 141.248 467.439C140.733 466.535 139.898 466.046 139.384 466.347C138.869 466.648 138.869 467.625 139.385 468.529C139.9 469.433 140.734 469.922 141.249 469.621Z" fill="#8996A6"/>
<path d="M146.092 472.447C146.606 472.146 146.606 471.169 146.091 470.265C145.576 469.361 144.741 468.872 144.227 469.173C143.712 469.474 143.712 470.451 144.228 471.355C144.743 472.259 145.577 472.748 146.092 472.447Z" fill="#8996A6"/>
<path d="M150.939 475.281C151.454 474.98 151.454 474.004 150.938 473.1C150.423 472.196 149.589 471.707 149.074 472.008C148.56 472.309 148.56 473.286 149.075 474.19C149.59 475.094 150.425 475.582 150.939 475.281Z" fill="#8996A6"/>
<path d="M121.39 458.93L108.097 451.14C107.63 450.806 107.248 450.364 106.982 449.851C106.716 449.339 106.574 448.769 106.567 448.19V448.19C106.567 447.05 107.248 446.53 108.097 447.02L121.39 454.81C121.857 455.145 122.239 455.586 122.505 456.099C122.771 456.612 122.913 457.181 122.92 457.76V457.76C122.871 458.9 122.19 459.42 121.39 458.93Z" fill="#8996A6"/>
<path d="M422.715 356.16L410.339 363.4C409.559 363.85 408.918 363.4 408.918 362.31C408.927 361.771 409.06 361.242 409.307 360.765C409.554 360.287 409.907 359.875 410.339 359.56L422.715 352.33C423.494 351.87 424.126 352.33 424.126 353.41C424.119 353.948 423.987 354.477 423.742 354.955C423.497 355.432 423.145 355.845 422.715 356.16V356.16Z" fill="#8996A6"/>
<path d="M403.766 367.24L391.39 374.48C390.611 374.94 389.969 374.48 389.969 373.39C389.98 372.853 390.114 372.326 390.361 371.85C390.607 371.375 390.96 370.964 391.39 370.65L403.766 363.41C404.546 362.95 405.178 363.41 405.178 364.5C405.171 365.037 405.04 365.565 404.795 366.041C404.55 366.517 404.197 366.928 403.766 367.24V367.24Z" fill="#8996A6"/>
<path d="M168.762 479.31L68.1663 420.46C59.6394 415.46 60.7151 406.77 70.5546 401.01L313.562 258.85C323.431 253.09 338.235 252.46 346.811 257.45L447.408 316.3C455.925 321.3 454.859 329.99 445.019 335.75L202.011 477.91C192.172 483.67 177.289 484.29 168.762 479.31Z" fill="#1D1C29"/>
<path d="M436.611 318.65L397.332 295.65L397.243 295.71C392.594 298.42 385.074 298.42 380.465 295.71C375.856 293 375.827 288.59 380.465 285.88L380.564 285.82L341.285 262.82C335.363 259.33 325.652 259.33 319.681 262.82L82.9799 401.32C77.0584 404.81 77.0584 410.47 82.9799 413.96L178.326 469.74C184.296 473.23 193.968 473.23 199.929 469.74L436.611 331.28C442.572 327.79 442.572 322.14 436.611 318.65Z" fill="white"/>
<path opacity="0.5" d="M436.61 331.28L199.929 469.74C194.54 472.89 186.112 473.2 180.131 470.64C179.515 470.378 178.915 470.078 178.335 469.74L82.9796 414C81.6571 413.266 80.5139 412.241 79.634 411C77.3838 407.77 78.499 403.93 82.9796 401.31L319.651 262.86C325.622 259.38 335.284 259.38 341.255 262.86L380.534 285.86H380.435C375.797 288.57 375.797 292.97 380.435 295.69C385.074 298.41 392.604 298.4 397.213 295.69L397.312 295.63L436.591 318.63C442.571 322.14 442.571 327.79 436.61 331.28Z" fill="url(#paint0_linear_31_168)"/>
<path d="M386.258 294.96C388.749 294.96 390.769 293.778 390.769 292.32C390.769 290.862 388.749 289.68 386.258 289.68C383.768 289.68 381.748 290.862 381.748 292.32C381.748 293.778 383.768 294.96 386.258 294.96Z" fill="#1D1C29"/>
<path opacity="0.1" d="M384.896 293.1C384.738 293.042 384.602 292.936 384.505 292.796C384.409 292.657 384.357 292.491 384.357 292.32C384.357 292.15 384.409 291.984 384.505 291.844C384.602 291.705 384.738 291.598 384.896 291.54C385.311 291.328 385.769 291.217 386.234 291.217C386.698 291.217 387.156 291.328 387.571 291.54C387.733 291.594 387.875 291.698 387.976 291.838C388.076 291.978 388.13 292.147 388.13 292.32C388.13 292.493 388.076 292.662 387.976 292.802C387.875 292.943 387.733 293.047 387.571 293.1C387.156 293.313 386.698 293.424 386.234 293.424C385.769 293.424 385.311 293.313 384.896 293.1V293.1Z" fill="white"/>
<path d="M402.424 311.35L400.716 310.35L403.569 308.68L405.276 309.68L402.424 311.35Z" fill="#E9EAF2"/>
<path d="M404.703 312.68L402.996 311.68L406.983 309.35L408.691 310.35L404.703 312.68Z" fill="#E9EAF2"/>
<path d="M406.983 314.01L405.276 313.01L410.97 309.68L412.678 310.68L406.983 314.01Z" fill="#E9EAF2"/>
<path d="M409.263 315.35L407.556 314.35L415.53 309.68L417.237 310.68L409.263 315.35Z" fill="#E9EAF2"/>
<path d="M416.665 319.68L414.01 318.12L419.33 315.01L421.985 316.57L416.665 319.68Z" fill="#E9EAF2"/>
<path d="M420.218 321.75L417.553 320.2L422.873 317.09L425.528 318.64L420.218 321.75Z" fill="#E9EAF2"/>
<path d="M423.761 323.82L421.096 322.27L426.416 319.16L429.071 320.71L423.761 323.82Z" fill="#E9EAF2"/>
<path d="M312.506 293.28L300.278 286.12C298.581 285.12 298.798 283.41 300.752 282.27L312.032 275.67C313.032 275.102 314.15 274.78 315.296 274.731C316.441 274.683 317.582 274.908 318.625 275.39L330.853 282.54C332.54 283.54 332.333 285.26 330.379 286.4L319.099 293C318.098 293.565 316.98 293.885 315.835 293.934C314.69 293.982 313.55 293.758 312.506 293.28V293.28Z" fill="#E9EAF2"/>
<path d="M395.683 341.94L324.122 300.08C322.435 299.08 322.652 297.36 324.596 296.22L335.886 289.62C336.885 289.054 338.001 288.734 339.145 288.685C340.288 288.637 341.427 288.861 342.469 289.34L414.03 331.2C415.718 332.2 415.51 333.92 413.556 335.06L402.276 341.66C401.274 342.223 400.157 342.542 399.012 342.59C397.868 342.639 396.728 342.416 395.683 341.94V341.94Z" fill="#E9EAF2"/>
<path d="M287.735 307.77L275.507 300.61C273.819 299.61 274.027 297.9 275.981 296.76L287.261 290.16C288.261 289.592 289.379 289.27 290.524 289.221C291.67 289.173 292.81 289.398 293.854 289.88L306.082 297C307.769 298 307.562 299.72 305.608 300.86L294.327 307.46C293.329 308.03 292.212 308.355 291.067 308.409C289.923 308.463 288.781 308.244 287.735 307.77V307.77Z" fill="#E9EAF2"/>
<path d="M370.912 356.43L299.361 314.57C297.673 313.57 297.88 311.85 299.834 310.71L311.115 304.11C312.116 303.545 313.233 303.225 314.378 303.176C315.523 303.128 316.663 303.351 317.707 303.83L389.259 345.69C390.946 346.69 390.739 348.41 388.785 349.55L377.505 356.15C376.503 356.713 375.385 357.032 374.241 357.08C373.096 357.129 371.957 356.906 370.912 356.43V356.43Z" fill="#E9EAF2"/>
<g opacity="0.6">
<path opacity="0.6" d="M262.973 322.26L250.735 315.1C249.048 314.1 249.255 312.39 251.209 311.25L262.499 304.65C263.498 304.082 264.614 303.76 265.758 303.712C266.902 303.663 268.041 303.889 269.082 304.37L281.32 311.52C283.007 312.52 282.79 314.24 280.846 315.38L269.556 322C268.555 322.563 267.439 322.88 266.295 322.925C265.152 322.97 264.014 322.742 262.973 322.26V322.26Z" fill="#E9EAF2"/>
<path opacity="0.6" d="M346.15 370.92L274.589 329.06C272.901 328.06 273.109 326.34 275.063 325.2L286.343 318.6C287.344 318.035 288.462 317.715 289.607 317.666C290.751 317.618 291.892 317.841 292.936 318.32L364.497 360.18C366.184 361.18 365.967 362.9 364.023 364.04L352.733 370.64C351.733 371.203 350.617 371.521 349.474 371.57C348.331 371.619 347.193 371.396 346.15 370.92V370.92Z" fill="#E9EAF2"/>
</g>
<path d="M238.202 336.75L226.003 329.59C224.316 328.59 224.533 326.88 226.477 325.74L237.767 319.13C238.767 318.566 239.884 318.247 241.027 318.2C242.17 318.153 243.309 318.379 244.35 318.86L256.598 326C258.285 327 258.078 328.72 256.124 329.86L244.755 336.47C243.76 337.031 242.649 337.349 241.511 337.397C240.373 337.446 239.24 337.224 238.202 336.75V336.75Z" fill="#E9EAF2"/>
<path d="M321.378 385.41L249.817 343.55C248.13 342.55 248.347 340.83 250.291 339.69L261.581 333.09C262.58 332.524 263.696 332.204 264.84 332.155C265.983 332.107 267.122 332.331 268.164 332.81L339.725 374.67C341.413 375.67 341.196 377.39 339.251 378.53L327.961 385.13C326.961 385.693 325.845 386.012 324.703 386.06C323.56 386.109 322.421 385.886 321.378 385.41V385.41Z" fill="#E9EAF2"/>
<path d="M213.43 351.24L201.202 344.08C199.515 343.08 199.722 341.37 201.676 340.23L212.956 333.62C213.958 333.056 215.076 332.737 216.221 332.69C217.366 332.643 218.506 332.869 219.549 333.35L231.777 340.5C233.464 341.5 233.257 343.22 231.303 344.36L220.023 351C219.019 351.559 217.899 351.872 216.755 351.914C215.61 351.955 214.471 351.725 213.43 351.24V351.24Z" fill="#E9EAF2"/>
<path d="M296.607 399.9L225.016 358C223.329 357 223.546 355.28 225.49 354.14L236.78 347.54C237.781 346.974 238.899 346.654 240.044 346.605C241.189 346.557 242.329 346.781 243.373 347.26L314.924 389.12C316.612 390.12 316.404 391.84 314.45 392.98L303.17 399.58C302.175 400.145 301.065 400.468 299.926 400.523C298.787 400.579 297.651 400.365 296.607 399.9V399.9Z" fill="#E9EAF2"/>
<g opacity="0.6">
<path opacity="0.6" d="M188.658 365.73L176.431 358.57C174.743 357.57 174.95 355.86 176.904 354.72L188.185 348.11C189.186 347.546 190.304 347.227 191.449 347.18C192.594 347.133 193.734 347.359 194.777 347.84L207.005 355C208.703 356 208.485 357.72 206.531 358.86L195.251 365.46C194.249 366.024 193.131 366.342 191.986 366.389C190.841 366.436 189.702 366.21 188.658 365.73Z" fill="#E9EAF2"/>
<path opacity="0.6" d="M271.835 414.39L200.284 372.53C198.596 371.53 198.804 369.81 200.758 368.67L212.038 362.07C213.039 361.505 214.157 361.185 215.302 361.136C216.446 361.088 217.587 361.312 218.631 361.79L290.152 403.65C291.84 404.65 291.633 406.37 289.679 407.51L278.398 414.11C277.4 414.668 276.288 414.984 275.149 415.033C274.01 415.082 272.876 414.862 271.835 414.39V414.39Z" fill="#E9EAF2"/>
</g>
<path d="M163.897 380.22L151.659 373.06C149.971 372.06 150.189 370.35 152.133 369.21L163.423 362.6C164.423 362.036 165.539 361.717 166.683 361.67C167.826 361.623 168.964 361.849 170.006 362.33L182.244 369.48C183.931 370.48 183.714 372.2 181.77 373.34L170.48 379.94C169.481 380.506 168.365 380.826 167.221 380.875C166.078 380.923 164.939 380.699 163.897 380.22V380.22Z" fill="#E9EAF2"/>
<path d="M247.074 428.88L175.513 387C173.825 386 174.032 384.28 175.986 383.14L187.267 376.54C188.268 375.975 189.385 375.655 190.53 375.606C191.675 375.558 192.815 375.781 193.859 376.26L265.42 418.12C267.108 419.12 266.891 420.84 264.947 421.98L253.637 428.6C252.639 429.16 251.527 429.476 250.388 429.525C249.249 429.574 248.114 429.353 247.074 428.88V428.88Z" fill="#E9EAF2"/>
<g opacity="0.6">
<path opacity="0.6" d="M139.155 394.71L126.917 387.55C125.23 386.55 125.447 384.84 127.391 383.7L138.681 377.09C139.683 376.526 140.801 376.207 141.946 376.16C143.091 376.113 144.231 376.339 145.274 376.82L157.472 384C159.16 385 158.953 386.72 156.999 387.86L145.708 394.46C144.711 395.016 143.599 395.329 142.461 395.372C141.323 395.416 140.191 395.189 139.155 394.71Z" fill="#E9EAF2"/>
<path opacity="0.6" d="M222.303 443.37L150.742 401.51C149.054 400.51 149.271 398.79 151.215 397.65L162.506 391.05C163.504 390.484 164.621 390.164 165.764 390.115C166.907 390.067 168.046 390.291 169.088 390.77L240.649 432.63C242.337 433.63 242.13 435.35 240.176 436.49L228.885 443.09C227.886 443.653 226.77 443.972 225.627 444.02C224.484 444.069 223.346 443.846 222.303 443.37V443.37Z" fill="#E9EAF2"/>
</g>
<g opacity="0.6">
<path opacity="0.6" d="M114.353 409.2L102.126 402C100.438 401 100.645 399.29 102.599 398.15L113.88 391.54C114.881 390.975 115.999 390.657 117.144 390.61C118.289 390.563 119.429 390.789 120.472 391.27L132.7 398.42C134.388 399.42 134.181 401.14 132.226 402.28L120.946 408.88C119.948 409.452 118.832 409.778 117.687 409.834C116.542 409.89 115.401 409.672 114.353 409.2V409.2Z" fill="#E9EAF2"/>
<path opacity="0.6" d="M197.531 457.86L125.979 416C124.282 415 124.499 413.29 126.443 412.15L137.734 405.55C138.734 404.984 139.852 404.664 140.997 404.615C142.142 404.566 143.282 404.791 144.326 405.27L215.877 447.13C217.565 448.13 217.358 449.85 215.404 450.99L204.123 457.59C203.121 458.151 202.003 458.468 200.858 458.515C199.714 458.562 198.574 458.338 197.531 457.86V457.86Z" fill="#E9EAF2"/>
</g>
<path d="M70.7322 185.06V234.46C70.7311 234.801 70.671 235.14 70.5546 235.46C70.491 235.664 70.4084 235.862 70.3078 236.05C70.0127 236.65 69.5625 237.158 69.0051 237.52L3.37535 275.92C3.19093 276.064 2.96828 276.148 2.73609 276.162C2.5039 276.176 2.27282 276.12 2.07263 276C1.95873 275.913 1.86728 275.8 1.80616 275.67C1.69566 275.433 1.64158 275.172 1.64826 274.91V225.51C1.64932 225.17 1.7026 224.833 1.80616 224.51C1.87723 224.297 1.96297 224.09 2.06276 223.89C2.36461 223.291 2.81748 222.784 3.37535 222.42L68.9854 184C69.1728 183.857 69.3983 183.775 69.6325 183.764C69.8667 183.754 70.0986 183.815 70.298 183.94C70.4067 184.028 70.4973 184.136 70.5644 184.26C70.6834 184.509 70.741 184.783 70.7322 185.06Z" fill="#4E4C88"/>
<path d="M2.20068 276.04L4.72718 277.45L4.88509 272.91L2.20068 276.04Z" fill="#4E4C88"/>
<path d="M70.1201 183.88L72.844 185.39L69.0049 190.05L70.1201 183.88Z" fill="#4E4C88"/>
<path d="M73.2783 186.48V235.88C73.2722 236.221 73.2122 236.558 73.1007 236.88C73.0328 237.082 72.9504 237.28 72.8539 237.47C72.5588 238.07 72.1086 238.578 71.5512 238.94L5.92146 277.32C5.73501 277.461 5.51132 277.541 5.27916 277.552C5.047 277.563 4.817 277.503 4.61873 277.38C4.5073 277.295 4.41622 277.186 4.35227 277.06C4.23464 276.825 4.17696 276.563 4.18449 276.3V226.9C4.18399 226.559 4.24073 226.221 4.35227 225.9C4.63411 225.055 5.18642 224.33 5.92146 223.84L71.5315 185.46C71.7175 185.319 71.9405 185.237 72.1724 185.225C72.4042 185.212 72.6346 185.27 72.8342 185.39C72.9481 185.476 73.0395 185.59 73.1007 185.72C73.2217 185.954 73.2828 186.216 73.2783 186.48V186.48Z" fill="#7F70F1"/>
<path opacity="0.12" d="M4.47102 277.56L38.7268 231.19L72.9233 237.31V242.21L4.18481 282.42L4.47102 277.56Z" fill="#1D1C29"/>
<path opacity="0.05" d="M38.7265 231.19L4.5398 225.47L1.39155 224.45L0 280.79L4.61875 277.38L38.7265 231.19Z" fill="#1D1C29"/>
<path opacity="0.05" d="M38.7268 231.19L72.9234 185.46L76.0716 180.77L77.4632 235.47L72.9234 237.31L38.7268 231.19Z" fill="#1D1C29"/>
<path d="M492.125 62.2301V120.07C492.116 120.465 492.047 120.857 491.917 121.23C491.835 121.465 491.739 121.696 491.631 121.92C491.285 122.624 490.756 123.218 490.102 123.64L413.251 168.64C413.031 168.803 412.768 168.897 412.496 168.909C412.224 168.922 411.954 168.853 411.721 168.71C411.588 168.61 411.48 168.48 411.405 168.33C411.273 168.053 411.209 167.748 411.218 167.44V109.55C411.222 109.168 411.289 108.79 411.415 108.43C411.495 108.183 411.594 107.942 411.711 107.71C412.058 107.001 412.591 106.403 413.251 105.98L490.082 61.0001C490.299 60.8329 490.562 60.7358 490.835 60.7216C491.107 60.7073 491.378 60.7765 491.612 60.9201C491.747 61.0178 491.855 61.1485 491.927 61.3001C492.066 61.5895 492.134 61.9085 492.125 62.2301V62.2301Z" fill="#4E4C88"/>
<path d="M411.869 168.76L414.829 170.41L415.017 165.09L411.869 168.76Z" fill="#4E4C88"/>
<path d="M491.404 60.8301L494.602 62.6101L490.101 68.0601L491.404 60.8301Z" fill="#4E4C88"/>
<path d="M495.105 63.89V121.73C495.097 122.125 495.027 122.517 494.898 122.89C494.815 123.125 494.72 123.356 494.612 123.58C494.26 124.28 493.732 124.873 493.082 125.3L416.231 170.3C416.012 170.464 415.749 170.559 415.477 170.571C415.204 170.584 414.934 170.514 414.701 170.37C414.566 170.272 414.458 170.142 414.386 169.99C414.254 169.713 414.189 169.408 414.198 169.1V111.21C414.203 110.828 414.27 110.45 414.395 110.09C414.471 109.841 414.57 109.6 414.692 109.37C415.039 108.661 415.571 108.063 416.231 107.64L493.062 62.69C493.282 62.5232 493.546 62.4265 493.82 62.4122C494.094 62.398 494.366 62.4668 494.602 62.61C494.734 62.7106 494.842 62.8406 494.918 62.99C495.048 63.2712 495.113 63.5793 495.105 63.89Z" fill="#7F70F1"/>
<path opacity="0.12" d="M414.514 170.53L454.652 116.23L494.691 123.4V129.14L414.198 176.23L414.514 170.53Z" fill="#1D1C29"/>
<path opacity="0.05" d="M454.652 116.23L414.612 109.54L410.931 108.34L409.293 174.32L414.701 170.33L454.652 116.23Z" fill="#1D1C29"/>
<path opacity="0.05" d="M454.652 116.23L494.691 62.6899L498.372 57.1899L500 121.25L494.691 123.4L454.652 116.23Z" fill="#1D1C29"/>
<path d="M324.24 44.78C324.127 44.495 323.935 44.2487 323.688 44.07C323.193 43.8087 322.66 43.6297 322.109 43.54L238.764 19.27L155.419 141.06C154.836 141.716 154.339 142.446 153.939 143.23C153.684 143.721 153.47 144.233 153.297 144.76C153.041 145.531 152.904 146.337 152.893 147.15V270C152.879 270.656 153.014 271.306 153.287 271.9C153.448 272.215 153.677 272.489 153.958 272.7C154.451 273.007 155.023 273.156 155.6 273.13C156.177 273.103 156.733 272.901 157.196 272.55L320.342 177.11C322.151 175.881 323.507 174.081 324.201 171.99C324.48 171.197 324.627 170.362 324.635 169.52V46.67C324.65 46.0175 324.515 45.3704 324.24 44.78V44.78Z" fill="#4E4C88"/>
<path d="M323.461 43.9302L328.583 47.0102L321.428 52.3302L323.461 43.9302Z" fill="#CEB95F"/>
<path d="M159.199 275.85L153.958 272.65L162.041 266.75L159.199 275.85Z" fill="#4E4C88"/>
<path d="M238.764 19.27L243.768 22.32L328.583 47L324.369 44.47C322.741 43.7514 321.058 43.1694 319.336 42.73L238.764 19.27Z" fill="#4E4C88"/>
<path d="M329.629 49.72V172.52C329.616 173.358 329.469 174.189 329.195 174.98C329.025 175.482 328.817 175.97 328.573 176.44C327.841 177.934 326.722 179.199 325.336 180.1L162.209 275.54C161.747 275.895 161.19 276.1 160.61 276.128C160.031 276.157 159.457 276.007 158.962 275.7C158.684 275.485 158.458 275.207 158.301 274.89C158.023 274.301 157.888 273.653 157.906 273V150.19C157.918 149.377 158.055 148.571 158.311 147.8C158.485 147.274 158.7 146.762 158.953 146.27C159.69 144.767 160.82 143.498 162.219 142.6L325.307 47.18L322.524 49.12C323.826 48.37 327.794 46.41 328.583 47.01C328.862 47.2254 329.088 47.5024 329.245 47.82C329.521 48.4131 329.653 49.0646 329.629 49.72V49.72Z" fill="#7F70F1"/>
<path opacity="0.12" d="M158.962 275.7L243.767 160.85L328.78 176.07V188.25L157.896 288.21L158.962 275.7Z" fill="#1D1C29"/>
<path opacity="0.05" d="M243.768 160.85L158.765 146.64L150.958 144.1L147.484 284.16L158.962 275.7L243.768 160.85Z" fill="#1D1C29"/>
<path opacity="0.05" d="M243.59 160.69L328.593 47.0299L336.399 35.3599L339.873 171.35L328.593 175.91L243.59 160.69Z" fill="#1D1C29"/>
<path d="M158.942 146.27L243.767 22.3198L328.583 47.0098L243.767 160.85L158.942 146.27Z" fill="#7F70F1"/>
<path opacity="0.3" d="M328.583 47.0098L309.387 72.7798L243.767 160.85L178.157 149.57L158.942 146.27L178.157 118.19L225.43 49.1098L243.767 22.3198L262.104 27.6598L309.387 41.4298L328.583 47.0098Z" fill="#1D1C29"/>
<path d="M309.388 0V72.78L243.768 160.85L178.158 149.57V76.77L309.388 0Z" fill="#FAFBFF"/>
<path d="M221.799 108.75L189.418 127.69V89.8099L221.799 70.8599V108.75Z" fill="#E9EAF2"/>
<path d="M259.963 86.42L227.582 105.37V67.48L259.963 48.53V86.42Z" fill="#E9EAF2"/>
<path d="M298.127 64.1L265.736 83.05V45.16L298.127 26.21V64.1Z" fill="#E9EAF2"/>
<path d="M298.127 79.83L189.418 143.42V136.83L298.127 73.23V79.83Z" fill="#E9EAF2"/>
<path d="M281.932 96.9102V103.51L197.945 152.64L189.408 151.76V151.04L281.932 96.9102Z" fill="#E9EAF2"/>
<path d="M265.736 119.58V126.18L216.223 155.14L205.999 154.53L265.736 119.58Z" fill="#E9EAF2"/>
<path d="M257.219 138.77V142.8L253.824 147.35L233.662 159.15L224.888 157.69L257.219 138.77Z" fill="#E9EAF2"/>
</g>
<defs>
<linearGradient id="paint0_linear_31_168" x1="259.795" y1="472.36" x2="259.795" y2="260.25" gradientUnits="userSpaceOnUse">
<stop offset="0.21" stop-color="white" stop-opacity="0"/>
<stop offset="1" stop-color="white" stop-opacity="0.2"/>
</linearGradient>
<clipPath id="clip0_31_168">
<rect width="506.63" height="499.81" fill="white"/>
</clipPath>
</defs>
</svg>
