<svg width="500" height="429" viewBox="0 0 500 429" fill="none" xmlns="http://www.w3.org/2000/svg">
<g clip-path="url(#clip0_25_769)">
<path opacity="0.4" d="M107.37 356.22L106.48 354.68L249.36 272.19L251.14 273.21L107.37 356.22Z" fill="#D6D8E5"/>
<path opacity="0.4" d="M195.032 187.985L194.142 189.526L412.64 315.676L413.53 314.135L195.032 187.985Z" fill="#D6D8E5"/>
<path opacity="0.4" d="M416.09 225.6L339.67 181.48L416.09 137.36L492.51 181.48L416.09 225.6Z" fill="#D6D8E5"/>
<path d="M490.09 171.73L423.44 133.25L356.8 171.73L347.02 166.09V177.37L423.44 221.49L499.86 177.37V166.09L490.09 171.73Z" fill="#D5D6E0"/>
<path d="M423.44 210.21L347.02 166.09L423.44 121.97L499.86 166.09L423.44 210.21Z" fill="#E9EAF4"/>
<path d="M423.44 73.25L360.01 36.62L423.44 0L486.88 36.62L423.44 73.25Z" fill="#E9EAF4"/>
<path d="M360.01 36.62V167.2L423.44 203.83V73.25L360.01 36.62Z" fill="#DFE0EA"/>
<path d="M423.44 203.83L486.88 167.2V36.62L423.44 73.25V203.83Z" fill="#D5D6E0"/>
<path d="M444.99 89.23L434.01 95.57V82.89L444.99 76.55V89.23Z" fill="#08081A"/>
<path d="M479.8 69.13L448.34 87.29V74.61L479.8 56.45V69.13Z" fill="#08081A"/>
<path d="M444.99 107.71L434.01 114.05V101.37L444.99 95.03V107.71Z" fill="#08081A"/>
<path d="M479.8 87.61L448.34 105.78V93.09L479.8 74.94V87.61Z" fill="#08081A"/>
<path d="M444.99 126.19L434.01 132.53V119.85L444.99 113.51V126.19Z" fill="#08081A"/>
<path d="M479.8 106.1L448.34 124.26V111.58L479.8 93.42V106.1Z" fill="#08081A"/>
<path d="M444.99 144.67L434.01 151.01V138.33L444.99 131.99V144.67Z" fill="#08081A"/>
<path d="M479.8 124.58L448.34 142.74V130.06L479.8 111.9V124.58Z" fill="#08081A"/>
<path d="M444.99 163.15L434.01 169.5V156.81L444.99 150.47V163.15Z" fill="#08081A"/>
<path d="M479.8 143.06L448.34 161.22V148.54L479.8 130.38V143.06Z" fill="#08081A"/>
<path d="M378.85 76.91L367.94 70.61V58.01L378.85 64.31V76.91Z" fill="#08081A"/>
<path d="M413.43 96.87L382.18 78.83V66.23L413.43 84.28V96.87Z" fill="#08081A"/>
<path d="M378.85 95.27L367.94 88.97V76.38L378.85 82.67V95.27Z" fill="#08081A"/>
<path d="M413.43 115.24L382.18 97.19V84.6L413.43 102.64V115.24Z" fill="#08081A"/>
<path d="M378.85 113.63L367.94 107.33V94.74L378.85 101.04V113.63Z" fill="#08081A"/>
<path d="M413.43 133.6L382.18 115.56V102.96L413.43 121V133.6Z" fill="#08081A"/>
<path d="M378.85 132L367.94 125.7V113.1L378.85 119.4V132Z" fill="#08081A"/>
<path d="M413.43 151.96L382.18 133.92V121.32L413.43 139.36V151.96Z" fill="#08081A"/>
<path d="M378.85 150.36L367.94 144.06V131.46L378.85 137.76V150.36Z" fill="#08081A"/>
<path d="M413.43 170.32L382.18 152.28V139.68L413.43 157.72V170.32Z" fill="#08081A"/>
<path d="M360.01 159.88L423.44 195.84L486.88 158.59V167.2L423.44 203.83L360.01 167.2V159.88Z" fill="#4E4C88"/>
<path d="M424.8 37.48C423.431 37.7951 422.009 37.7951 420.64 37.48L417.49 39.3C420.885 40.4703 424.574 40.4703 427.97 39.3L424.8 37.48Z" fill="#08081A"/>
<path d="M427.83 35.74L431 37.57C431.47 37.218 431.851 36.7613 432.114 36.2362C432.377 35.7112 432.513 35.1321 432.513 34.545C432.513 33.9579 432.377 33.3789 432.114 32.8538C431.851 32.3287 431.47 31.8721 431 31.52L427.84 33.34C428.098 33.6873 428.237 34.1089 428.235 34.5417C428.233 34.9744 428.091 35.3949 427.83 35.74V35.74Z" fill="#08081A"/>
<path d="M420.65 31.6C422.019 31.29 423.441 31.29 424.81 31.6L428 29.77C424.605 28.5997 420.915 28.5997 417.52 29.77L420.65 31.6Z" fill="#08081A"/>
<path d="M417.63 33.34L414.47 31.52C413.998 31.8708 413.615 32.3271 413.351 32.8523C413.087 33.3775 412.95 33.9572 412.95 34.545C412.95 35.1328 413.087 35.7125 413.351 36.2377C413.615 36.763 413.998 37.2192 414.47 37.57L417.63 35.75C417.368 35.4029 417.226 34.9799 417.226 34.545C417.226 34.1101 417.368 33.6871 417.63 33.34V33.34Z" fill="#08081A"/>
<path d="M433.3 38.9L436.3 40.66C441.14 37.07 441.14 32.01 436.3 28.42L433.3 30.19C436.51 32.78 436.51 36.3 433.3 38.9Z" fill="#08081A"/>
<path d="M430.28 40.64C425.418 42.4999 420.041 42.4999 415.18 40.64L412.13 42.4C418.916 45.1997 426.534 45.1997 433.32 42.4L430.28 40.64Z" fill="#08081A"/>
<path d="M415.18 28.44C420.039 26.5846 425.411 26.5846 430.27 28.44L433.32 26.68C426.532 23.8901 418.918 23.8901 412.13 26.68L415.18 28.44Z" fill="#08081A"/>
<path d="M412.16 30.18L409.11 28.42C404.27 32.01 404.27 37.07 409.11 40.66L412.16 38.9C409 36.3 408.94 32.78 412.16 30.18Z" fill="#08081A"/>
<path d="M438.63 42L441.63 43.75C449.35 38.46 449.35 30.67 441.63 25.37L438.63 27.12C444.71 31.42 444.7 37.66 438.63 42Z" fill="#08081A"/>
<path d="M435.61 43.72C428.13 47.23 417.32 47.23 409.84 43.72L406.84 45.47C416.01 49.92 429.5 49.92 438.67 45.47L435.61 43.72Z" fill="#08081A"/>
<path d="M409.84 25.36C417.33 21.85 428.13 21.85 435.61 25.36L438.61 23.61C429.44 19.15 415.95 19.15 406.78 23.61L409.84 25.36Z" fill="#08081A"/>
<path d="M406.82 27.1L403.82 25.35C396.1 30.65 396.1 38.44 403.82 43.73L406.82 41.98C400.75 37.66 400.75 31.42 406.82 27.1Z" fill="#08081A"/>
<path opacity="0.4" d="M176.61 230.93L100.19 186.81L176.61 142.69L253.03 186.81L176.61 230.93Z" fill="#D6D8E5"/>
<path d="M250.6 177.06L183.96 138.59L117.32 177.06L107.54 171.42V182.71L183.96 226.82L260.38 182.71V171.42L250.6 177.06Z" fill="#D5D6E0"/>
<path d="M183.96 215.54L107.54 171.42L183.96 127.3L260.38 171.42L183.96 215.54Z" fill="#E9EAF4"/>
<path d="M183.96 78.58L120.53 41.95L183.96 5.33002L247.4 41.95L183.96 78.58Z" fill="#E9EAF4"/>
<path d="M120.53 41.95V172.53L183.96 209.16V78.58L120.53 41.95Z" fill="#DFE0EA"/>
<path d="M183.96 209.16L247.4 172.53V41.95L183.96 78.58V209.16Z" fill="#D5D6E0"/>
<path d="M205.51 94.56L194.53 100.9V88.22L205.51 81.88V94.56Z" fill="#08081A"/>
<path d="M240.31 74.47L208.86 92.63V79.94L240.31 61.78V74.47Z" fill="#08081A"/>
<path d="M205.51 113.04L194.53 119.38V106.7L205.51 100.36V113.04Z" fill="#08081A"/>
<path d="M240.31 92.95L208.86 111.11V98.43L240.31 80.27V92.95Z" fill="#08081A"/>
<path d="M205.51 131.52L194.53 137.86V125.18L205.51 118.84V131.52Z" fill="#08081A"/>
<path d="M240.31 111.43L208.86 129.59V116.91L240.31 98.75V111.43Z" fill="#08081A"/>
<path d="M205.51 150L194.53 156.34V143.66L205.51 137.32V150Z" fill="#08081A"/>
<path d="M240.31 129.91L208.86 148.07V135.39L240.31 117.23V129.91Z" fill="#08081A"/>
<path d="M205.51 168.49L194.53 174.83V162.15L205.51 155.81V168.49Z" fill="#08081A"/>
<path d="M240.31 148.39L208.86 166.55V153.87L240.31 135.71V148.39Z" fill="#08081A"/>
<path d="M139.37 82.24L128.46 75.94V63.34L139.37 69.64V82.24Z" fill="#08081A"/>
<path d="M173.94 102.2L142.69 84.16V71.56L173.94 89.61V102.2Z" fill="#08081A"/>
<path d="M139.37 100.6L128.46 94.3V81.71L139.37 88.01V100.6Z" fill="#08081A"/>
<path d="M173.94 120.57L142.69 102.53V89.93L173.94 107.97V120.57Z" fill="#08081A"/>
<path d="M139.37 118.97L128.46 112.67V100.07L139.37 106.37V118.97Z" fill="#08081A"/>
<path d="M173.94 138.93L142.69 120.89V108.29L173.94 126.33V138.93Z" fill="#08081A"/>
<path d="M139.37 137.33L128.46 131.03V118.43L139.37 124.73V137.33Z" fill="#08081A"/>
<path d="M173.94 157.29L142.69 139.25V126.65L173.94 144.69V157.29Z" fill="#08081A"/>
<path d="M139.37 155.69L128.46 149.39V136.79L139.37 143.09V155.69Z" fill="#08081A"/>
<path d="M173.94 175.65L142.69 157.61V145.01L173.94 163.06V175.65Z" fill="#08081A"/>
<path d="M120.53 165.21L183.96 201.18L247.4 163.92V172.53L183.96 209.16L120.53 172.53V165.21Z" fill="#4E4C88"/>
<path d="M185.32 42.82C183.951 43.13 182.529 43.13 181.16 42.82L178 44.64C181.399 45.8103 185.091 45.8103 188.49 44.64L185.32 42.82Z" fill="#08081A"/>
<path d="M188.34 41.07L191.51 42.9C191.97 42.5471 192.343 42.0929 192.6 41.5727C192.857 41.0525 192.99 40.4801 192.99 39.9C192.99 39.3199 192.857 38.7476 192.6 38.2273C192.343 37.7071 191.97 37.253 191.51 36.9L188.35 38.72C188.596 39.0627 188.728 39.4745 188.726 39.8966C188.725 40.3188 188.589 40.7295 188.34 41.07V41.07Z" fill="#08081A"/>
<path d="M181.17 36.93C182.539 36.62 183.961 36.62 185.33 36.93L188.49 35.11C185.09 33.945 181.4 33.945 178 35.11L181.17 36.93Z" fill="#08081A"/>
<path d="M178.15 38.67L175 36.85C174.539 37.2029 174.166 37.6571 173.91 38.1773C173.653 38.6975 173.52 39.2699 173.52 39.85C173.52 40.4301 173.653 41.0024 173.91 41.5227C174.166 42.0429 174.539 42.497 175 42.85L178.16 41.03C177.908 40.6885 177.771 40.2758 177.77 39.8516C177.768 39.4274 177.901 39.0136 178.15 38.67V38.67Z" fill="#08081A"/>
<path d="M193.82 44.23L196.82 45.99C201.66 42.4 201.66 37.34 196.82 33.75L193.77 35.52C197 38.12 197 41.63 193.82 44.23Z" fill="#08081A"/>
<path d="M190.79 46C185.931 47.8554 180.559 47.8554 175.7 46L172.7 47.76C179.486 50.5597 187.104 50.5597 193.89 47.76L190.79 46Z" fill="#08081A"/>
<path d="M175.7 33.77C180.559 31.9146 185.931 31.9146 190.79 33.77L193.84 32C187.052 29.2101 179.438 29.2101 172.65 32L175.7 33.77Z" fill="#08081A"/>
<path d="M172.68 35.51L169.63 33.76C164.79 37.34 164.79 42.4 169.63 45.99L172.68 44.23C169.47 41.63 169.46 38.11 172.68 35.51Z" fill="#08081A"/>
<path d="M199.15 47.31L202.15 49.06C209.87 43.77 209.87 35.98 202.15 30.68L199.15 32.43C205.22 36.75 205.22 43 199.15 47.31Z" fill="#08081A"/>
<path d="M196.13 49.05C188.64 52.56 177.84 52.56 170.36 49.05L167.36 50.8C176.53 55.25 190.02 55.25 199.19 50.8L196.13 49.05Z" fill="#08081A"/>
<path d="M170.36 30.69C177.85 27.19 188.65 27.18 196.13 30.69L199.13 28.94C189.96 24.48 176.47 24.48 167.3 28.94L170.36 30.69Z" fill="#08081A"/>
<path d="M167.34 32.43L164.34 30.68C156.62 35.98 156.62 43.77 164.34 49.06L167.34 47.31C161.27 43 161.27 36.76 167.34 32.43Z" fill="#08081A"/>
<path opacity="0.4" d="M292.1 296.86L215.68 252.74L292.1 208.62L368.52 252.74L292.1 296.86Z" fill="#D6D8E5"/>
<path d="M366.09 242.99L299.45 204.51L232.81 242.99L223.03 237.35V248.63L299.45 292.75L375.87 248.64V237.35L366.09 242.99Z" fill="#D5D6E0"/>
<path d="M299.45 281.47L223.03 237.35L299.45 193.23L375.87 237.35L299.45 281.47Z" fill="#E9EAF4"/>
<path d="M299.45 144.51L236.02 107.88L299.45 71.26L362.88 107.89L299.45 144.51Z" fill="#E9EAF4"/>
<path d="M236.02 107.88V238.46L299.45 275.09V144.51L236.02 107.88Z" fill="#DFE0EA"/>
<path d="M299.45 275.09L362.88 238.47V107.89L299.45 144.51V275.09Z" fill="#D5D6E0"/>
<path d="M321 160.49L310.02 166.83V154.15L321 147.81V160.49Z" fill="#08081A"/>
<path d="M355.8 140.4L324.35 158.56V145.88L355.8 127.72V140.4Z" fill="#08081A"/>
<path d="M321 178.97L310.02 185.31V172.63L321 166.29V178.97Z" fill="#08081A"/>
<path d="M355.8 158.88L324.35 177.04V164.36L355.8 146.2V158.88Z" fill="#08081A"/>
<path d="M321 197.45L310.02 203.79V191.11L321 184.77V197.45Z" fill="#08081A"/>
<path d="M355.8 177.36L324.35 195.52V182.84L355.8 164.68V177.36Z" fill="#08081A"/>
<path d="M321 215.93L310.02 222.27V209.59L321 203.25V215.93Z" fill="#08081A"/>
<path d="M355.8 195.84L324.35 214V201.32L355.8 183.16V195.84Z" fill="#08081A"/>
<path d="M321 234.42L310.02 240.76V228.08L321 221.74V234.42Z" fill="#08081A"/>
<path d="M355.8 214.32L324.35 232.48V219.8L355.8 201.64V214.32Z" fill="#08081A"/>
<path d="M254.85 148.17L243.94 141.87V129.28L254.85 135.57V148.17Z" fill="#08081A"/>
<path d="M289.43 168.13L258.18 150.09V137.5L289.43 155.54V168.13Z" fill="#08081A"/>
<path d="M254.85 166.53L243.94 160.23V147.64L254.85 153.94V166.53Z" fill="#08081A"/>
<path d="M289.43 186.5L258.18 168.46V155.86L289.43 173.9V186.5Z" fill="#08081A"/>
<path d="M254.85 184.9L243.94 178.6V166L254.85 172.3V184.9Z" fill="#08081A"/>
<path d="M289.43 204.86L258.18 186.82V174.22L289.43 192.26V204.86Z" fill="#08081A"/>
<path d="M254.85 203.26L243.94 196.96V184.36L254.85 190.66V203.26Z" fill="#08081A"/>
<path d="M289.43 223.22L258.18 205.18V192.58L289.43 210.62V223.22Z" fill="#08081A"/>
<path d="M254.85 221.62L243.94 215.32V202.72L254.85 209.02V221.62Z" fill="#08081A"/>
<path d="M289.43 241.58L258.18 223.54V210.94L289.43 228.99V241.58Z" fill="#08081A"/>
<path d="M236.02 231.14L299.45 267.11L362.88 229.85V238.47L299.45 275.09L236.02 238.46V231.14Z" fill="#4E4C88"/>
<path d="M300.81 108.75C299.44 109.06 298.019 109.06 296.65 108.75L293.49 110.57C296.888 111.74 300.581 111.74 303.98 110.57L300.81 108.75Z" fill="#08081A"/>
<path d="M303.83 107L307 108.83C307.461 108.477 307.834 108.023 308.09 107.503C308.347 106.982 308.48 106.41 308.48 105.83C308.48 105.25 308.347 104.678 308.09 104.157C307.834 103.637 307.461 103.183 307 102.83L303.84 104.65C304.087 104.993 304.218 105.405 304.217 105.827C304.215 106.249 304.08 106.659 303.83 107Z" fill="#08081A"/>
<path d="M296.66 102.86C298.029 102.55 299.45 102.55 300.82 102.86L304 101C300.6 99.835 296.909 99.835 293.51 101L296.66 102.86Z" fill="#08081A"/>
<path d="M293.64 104.6L290.47 102.78C290.01 103.133 289.637 103.587 289.38 104.107C289.123 104.628 288.99 105.2 288.99 105.78C288.99 106.36 289.123 106.932 289.38 107.453C289.637 107.973 290.01 108.427 290.47 108.78L293.63 106.96C293.381 106.616 293.248 106.203 293.25 105.778C293.252 105.354 293.388 104.941 293.64 104.6V104.6Z" fill="#08081A"/>
<path d="M309.31 110.16L312.31 111.92C317.15 108.33 317.15 103.27 312.31 99.68L309.26 101.45C312.51 104.05 312.52 107.56 309.31 110.16Z" fill="#08081A"/>
<path d="M306.28 111.91C301.421 113.765 296.049 113.765 291.19 111.91L288.14 113.67C294.926 116.47 302.544 116.47 309.33 113.67L306.28 111.91Z" fill="#08081A"/>
<path d="M291.19 99.7C296.049 97.8445 301.421 97.8445 306.28 99.7L309.33 97.94C302.542 95.1501 294.928 95.1501 288.14 97.94L291.19 99.7Z" fill="#08081A"/>
<path d="M288.16 101.44L285.16 99.69C280.32 103.27 280.32 108.33 285.16 111.92L288.21 110.16C285 107.56 285 104 288.16 101.44Z" fill="#08081A"/>
<path d="M314.64 113.24L317.64 114.99C325.36 109.7 325.36 101.91 317.64 96.61L314.64 98.36C320.71 102.68 320.71 108.92 314.64 113.24Z" fill="#08081A"/>
<path d="M311.62 115C304.13 118.51 293.33 118.51 285.85 115L282.85 116.75C292.02 121.2 305.51 121.2 314.68 116.75L311.62 115Z" fill="#08081A"/>
<path d="M285.85 96.62C293.34 93.12 304.14 93.11 311.62 96.62L314.62 94.87C305.45 90.41 291.96 90.41 282.79 94.87L285.85 96.62Z" fill="#08081A"/>
<path d="M282.83 98.36L279.83 96.61C272.11 101.91 272.11 109.7 279.83 114.99L282.83 113.24C276.76 108.92 276.76 102.69 282.83 98.36Z" fill="#08081A"/>
<path opacity="0.4" d="M416.23 368.59L339.81 324.47L416.23 280.35L492.65 324.47L416.23 368.59Z" fill="#D6D8E5"/>
<path d="M490.23 314.72L423.58 276.25L356.94 314.72L347.16 309.08V320.37L423.58 364.49L500 320.37V309.08L490.23 314.72Z" fill="#D5D6E0"/>
<path d="M423.58 353.2L347.16 309.08L423.58 264.96L500 309.08L423.58 353.2Z" fill="#E9EAF4"/>
<path d="M423.58 216.24L360.15 179.62L423.58 142.99L487.01 179.62L423.58 216.24Z" fill="#E9EAF4"/>
<path d="M360.15 179.62V310.19L423.58 346.82V216.24L360.15 179.62Z" fill="#DFE0EA"/>
<path d="M423.58 346.82L487.01 310.2V179.62L423.58 216.24V346.82Z" fill="#D5D6E0"/>
<path d="M445.13 232.22L434.15 238.56V225.88L445.13 219.54V232.22Z" fill="#08081A"/>
<path d="M479.93 212.13L448.48 230.29V217.61L479.93 199.45V212.13Z" fill="#08081A"/>
<path d="M445.13 250.7L434.15 257.04V244.36L445.13 238.02V250.7Z" fill="#08081A"/>
<path d="M479.93 230.61L448.48 248.77V236.09L479.93 217.93V230.61Z" fill="#08081A"/>
<path d="M445.13 269.18L434.15 275.52V262.84L445.13 256.5V269.18Z" fill="#08081A"/>
<path d="M479.93 249.09L448.48 267.25V254.57L479.93 236.41V249.09Z" fill="#08081A"/>
<path d="M445.13 287.67L434.15 294.01V281.33L445.13 274.99V287.67Z" fill="#08081A"/>
<path d="M479.93 267.57L448.48 285.73V273.05L479.93 254.89V267.57Z" fill="#08081A"/>
<path d="M445.13 306.15L434.15 312.49V299.81L445.13 293.47V306.15Z" fill="#08081A"/>
<path d="M479.93 286.05L448.48 304.21V291.53L479.93 273.37V286.05Z" fill="#08081A"/>
<path d="M378.99 219.9L368.08 213.6V201.01L378.99 207.31V219.9Z" fill="#08081A"/>
<path d="M413.56 239.87L382.31 221.82V209.23L413.56 227.27V239.87Z" fill="#08081A"/>
<path d="M378.99 238.26L368.08 231.97V219.37L378.99 225.67V238.26Z" fill="#08081A"/>
<path d="M413.56 258.23L382.31 240.19V227.59L413.56 245.63V258.23Z" fill="#08081A"/>
<path d="M378.99 256.63L368.08 250.33V237.73L378.99 244.03V256.63Z" fill="#08081A"/>
<path d="M413.56 276.59L382.31 258.55V245.95L413.56 263.99V276.59Z" fill="#08081A"/>
<path d="M378.99 274.99L368.08 268.69V256.09L378.99 262.39V274.99Z" fill="#08081A"/>
<path d="M413.56 294.95L382.31 276.91V264.31L413.56 282.36V294.95Z" fill="#08081A"/>
<path d="M378.99 293.35L368.08 287.05V274.45L378.99 280.75V293.35Z" fill="#08081A"/>
<path d="M413.56 313.31L382.31 295.27V282.67L413.56 300.72V313.31Z" fill="#08081A"/>
<path d="M360.15 302.88L423.58 338.84L487.01 301.58V310.2L423.58 346.82L360.15 310.19V302.88Z" fill="#4E4C88"/>
<path d="M424.94 180.48C423.571 180.795 422.149 180.795 420.78 180.48L417.62 182.3C421.019 183.47 424.711 183.47 428.11 182.3L424.94 180.48Z" fill="#08081A"/>
<path d="M428 178.73L431.17 180.56C431.64 180.208 432.021 179.751 432.284 179.226C432.547 178.701 432.683 178.122 432.683 177.535C432.683 176.948 432.547 176.369 432.284 175.844C432.021 175.319 431.64 174.862 431.17 174.51L428 176.33C428.26 176.676 428.4 177.097 428.4 177.53C428.4 177.963 428.26 178.384 428 178.73Z" fill="#08081A"/>
<path d="M420.79 174.59C422.159 174.275 423.581 174.275 424.95 174.59L428.11 172.76C424.713 171.6 421.027 171.6 417.63 172.76L420.79 174.59Z" fill="#08081A"/>
<path d="M417.77 176.33L414.6 174.51C414.13 174.862 413.749 175.319 413.486 175.844C413.223 176.369 413.086 176.948 413.086 177.535C413.086 178.122 413.223 178.701 413.486 179.226C413.749 179.751 414.13 180.208 414.6 180.56L417.76 178.74C417.499 178.392 417.359 177.968 417.361 177.533C417.363 177.098 417.506 176.676 417.77 176.33V176.33Z" fill="#08081A"/>
<path d="M433.44 181.89L436.44 183.65C441.28 180.07 441.28 175 436.44 171.42L433.39 173.18C436.65 175.78 436.65 179.3 433.44 181.89Z" fill="#08081A"/>
<path d="M430.42 183.64C425.558 185.495 420.182 185.495 415.32 183.64L412.27 185.41C419.058 188.2 426.672 188.2 433.46 185.41L430.42 183.64Z" fill="#08081A"/>
<path d="M415.32 171.43C420.18 169.58 425.55 169.58 430.41 171.43L433.41 169.67C426.622 166.88 419.008 166.88 412.22 169.67L415.32 171.43Z" fill="#08081A"/>
<path d="M412.3 173.18L409.25 171.42C404.41 175 404.41 180.07 409.25 183.65L412.3 181.89C409.09 179.29 409.08 175.77 412.3 173.18Z" fill="#08081A"/>
<path d="M438.77 185L441.77 186.75C449.49 181.46 449.49 173.67 441.77 168.37L438.77 170.12C444.84 174.42 444.84 180.65 438.77 185Z" fill="#08081A"/>
<path d="M435.75 186.72C428.26 190.22 417.46 190.22 409.98 186.72L406.98 188.47C416.15 192.92 429.64 192.92 438.81 188.47L435.75 186.72Z" fill="#08081A"/>
<path d="M410 168.35C417.49 164.85 428.29 164.84 435.77 168.35L438.77 166.6C429.6 162.14 416.11 162.15 406.94 166.6L410 168.35Z" fill="#08081A"/>
<path d="M407 170.1L404 168.35C396.28 173.64 396.28 181.43 404 186.72L407 184.97C400.89 180.65 400.89 174.42 407 170.1Z" fill="#08081A"/>
<path opacity="0.4" d="M49.3099 426.28L3.50991 399.83C-1.69009 396.83 -1.04009 391.6 4.95991 388.14L28.2099 374.71C34.2099 371.25 43.2799 370.87 48.4699 373.87L94.2699 400.32C99.4699 403.32 98.8099 408.55 92.8199 412.01L69.5699 425.44C63.5699 428.9 54.4999 429.28 49.3099 426.28Z" fill="#D6D8E5"/>
<path d="M118.1 393.28V329.34L20.3497 318.34V382.68C20.2797 384.68 21.4097 386.52 23.8297 387.92L69.6297 414.36C74.8197 417.36 83.8997 416.98 89.8897 413.52L113.14 400.1C116.52 398.1 118.2 395.64 118.14 393.28H118.1Z" fill="#D6D8E5"/>
<path d="M118.08 336.32V329.32H110.56L68.7997 305.22C63.6097 302.22 54.5397 302.6 48.5397 306.06L25.2897 319.48C24.8765 319.719 24.476 319.979 24.0897 320.26L20.3497 318.34C20.3497 318.34 20.3497 325.71 20.3497 325.96C20.2997 327.96 21.4297 329.79 23.8397 331.18L69.6397 357.62C74.8297 360.62 83.9097 360.25 89.8997 356.78L113.15 343.36C116.63 341.36 118.3 338.75 118.08 336.36V336.32Z" fill="#EDF0F9"/>
<path d="M69.6297 350L23.8297 323.56C18.6397 320.56 19.2897 315.33 25.2897 311.86L48.5397 298.44C54.5397 294.98 63.6097 294.6 68.7997 297.6L114.6 324.04C119.79 327.04 119.14 332.28 113.14 335.74L89.8897 349.18C83.8997 352.65 74.8197 353 69.6297 350Z" fill="#E2E5F2"/>
<path d="M93.16 326C93.1657 326.407 93.0608 326.808 92.8565 327.16C92.6523 327.513 92.3562 327.803 92 328L70.9 340.18C70.5576 340.376 70.1698 340.48 69.775 340.48C69.3802 340.48 68.9924 340.376 68.65 340.18L39.13 323.07C38.7861 322.874 38.5004 322.59 38.3019 322.247C38.1034 321.905 37.9992 321.516 38 321.12V321L93.16 326Z" fill="#E5E5E5"/>
<path d="M91.9998 328L70.8998 340.18C70.5593 340.377 70.173 340.48 69.7798 340.48V326H93.1598C93.1655 326.407 93.0606 326.808 92.8563 327.16C92.652 327.513 92.356 327.803 91.9998 328V328Z" fill="#E5E5E5"/>
<path d="M70.6099 339C70.3658 339.143 70.0879 339.219 69.8049 339.219C69.5219 339.219 69.244 339.143 68.9999 339L38.2999 321.29C38.2128 321.262 38.1367 321.208 38.0826 321.134C38.0286 321.06 37.9995 320.971 37.9995 320.88C37.9995 320.789 38.0286 320.7 38.0826 320.626C38.1367 320.552 38.2128 320.498 38.2999 320.47L60.9299 307.4L93.1599 326L70.6099 339Z" fill="#F4F4F4"/>
<path d="M50.9199 326.01L51.0799 326.1L60.9299 331.79L66.3299 328.67L66.4799 328.58L56.4799 322.8L50.9199 326.01Z" fill="#BFBFBF"/>
<path d="M51.0801 326.1L60.9301 331.79L66.3301 328.67L56.4801 322.98L51.0801 326.1Z" fill="#E5E5E5"/>
<path d="M84.6101 327.13L86.0001 328C86.0693 328.037 86.1466 328.056 86.2251 328.056C86.3035 328.056 86.3808 328.037 86.45 328L87.8001 327.22C87.9401 327.14 87.9501 327.03 87.8001 326.96L86.38 326.14C86.3108 326.103 86.2335 326.084 86.1551 326.084C86.0766 326.084 85.9993 326.103 85.9301 326.14L84.5801 326.92C84.5101 327 84.5001 327.06 84.6101 327.13Z" fill="#08081A"/>
<path d="M82.6001 326L84.0201 326.82C84.0912 326.857 84.1701 326.876 84.2501 326.876C84.3302 326.876 84.4091 326.857 84.4801 326.82L85.8301 326.04C85.9701 325.96 85.9801 325.84 85.8301 325.78L84.4101 324.96C84.3408 324.923 84.2636 324.904 84.1851 324.904C84.1067 324.904 84.0294 324.923 83.9601 324.96L82.6101 325.74C82.5001 325.79 82.4901 325.9 82.6001 326Z" fill="#08081A"/>
<path d="M80.5899 324.81L82.0099 325.63C82.081 325.667 82.1598 325.686 82.2399 325.686C82.3199 325.686 82.3988 325.667 82.4699 325.63L83.8199 324.85C83.9499 324.77 83.9699 324.65 83.8199 324.59L82.3999 323.77C82.3306 323.733 82.2533 323.714 82.1749 323.714C82.0964 323.714 82.0192 323.733 81.9499 323.77L80.5999 324.55C80.4899 324.63 80.4799 324.74 80.5899 324.81Z" fill="#08081A"/>
<path d="M78.5801 323.65L80.0001 324.47C80.0712 324.507 80.1501 324.526 80.2301 324.526C80.3102 324.526 80.389 324.507 80.4601 324.47L81.8101 323.69C81.9401 323.61 81.9601 323.49 81.8101 323.43L80.3901 322.61C80.3208 322.573 80.2436 322.554 80.1651 322.554C80.0867 322.554 80.0094 322.573 79.9401 322.61L78.5901 323.39C78.4801 323.46 78.4701 323.58 78.5801 323.65Z" fill="#08081A"/>
<path d="M76.57 322.49L77.99 323.31C78.06 323.344 78.137 323.362 78.215 323.362C78.293 323.362 78.37 323.344 78.44 323.31L79.8 322.53C79.93 322.45 79.95 322.33 79.8 322.27L78.38 321.45C78.31 321.416 78.233 321.398 78.155 321.398C78.077 321.398 78 321.416 77.93 321.45L76.57 322.24C76.47 322.3 76.46 322.42 76.57 322.49Z" fill="#08081A"/>
<path d="M74.5598 321.33L75.9798 322.15C76.0498 322.184 76.1267 322.202 76.2048 322.202C76.2828 322.202 76.3597 322.184 76.4298 322.15L77.7898 321.37C77.9198 321.29 77.9398 321.17 77.7898 321.1L76.3698 320.28C76.299 320.248 76.2223 320.232 76.1448 320.232C76.0672 320.232 75.9905 320.248 75.9198 320.28L74.5598 321.07C74.4598 321.14 74.4498 321.26 74.5598 321.33Z" fill="#08081A"/>
<path d="M72.5499 320.17L73.9999 321C74.0707 321.032 74.1473 321.048 74.2249 321.048C74.3024 321.048 74.3791 321.032 74.4499 321L75.8099 320.21C75.9399 320.14 75.9599 320.02 75.8099 319.95L74.3899 319.13C74.3191 319.098 74.2425 319.082 74.1649 319.082C74.0873 319.082 74.0107 319.098 73.9399 319.13L72.5799 319.91C72.4499 320 72.4299 320.1 72.5499 320.17Z" fill="#08081A"/>
<path d="M70.5397 319L71.9597 319.82C72.0305 319.852 72.1071 319.868 72.1847 319.868C72.2623 319.868 72.3389 319.852 72.4097 319.82L73.7697 319.03C73.8997 318.96 73.9197 318.84 73.7697 318.77L72.3497 317.95C72.2797 317.916 72.2027 317.898 72.1247 317.898C72.0467 317.898 71.9697 317.916 71.8997 317.95L70.5397 318.73C70.4397 318.82 70.4197 318.94 70.5397 319Z" fill="#08081A"/>
<path d="M68.5299 317.84L69.9499 318.66C70.0199 318.694 70.0969 318.712 70.1749 318.712C70.253 318.712 70.3299 318.694 70.3999 318.66L71.7599 317.87C71.8899 317.8 71.9099 317.68 71.7599 317.61L70.3399 316.79C70.2699 316.756 70.1929 316.738 70.1149 316.738C70.0369 316.738 69.9599 316.756 69.8899 316.79L68.5299 317.57C68.4299 317.66 68.4099 317.78 68.5299 317.84Z" fill="#08081A"/>
<path d="M66.5197 316.68L67.9397 317.5C68.009 317.537 68.0862 317.556 68.1647 317.556C68.2431 317.556 68.3204 317.537 68.3897 317.5L69.7497 316.72C69.8797 316.64 69.8897 316.53 69.7497 316.46L68.3297 315.64C68.2604 315.603 68.1831 315.584 68.1047 315.584C68.0262 315.584 67.949 315.603 67.8797 315.64L66.5197 316.42C66.4197 316.5 66.3997 316.62 66.5197 316.68Z" fill="#08081A"/>
<path d="M64.5099 315.52L65.9299 316.34C65.9992 316.377 66.0765 316.396 66.1549 316.396C66.2334 316.396 66.3106 316.377 66.3799 316.34L67.7399 315.56C67.8699 315.48 67.8799 315.37 67.7399 315.3L66.3199 314.48C66.2506 314.443 66.1734 314.424 66.0949 314.424C66.0165 314.424 65.9392 314.443 65.8699 314.48L64.5099 315.26C64.4099 315.34 64.3899 315.46 64.5099 315.52Z" fill="#08081A"/>
<path d="M62.4998 314.36L63.9198 315.18C63.9891 315.217 64.0664 315.236 64.1448 315.236C64.2233 315.236 64.3005 315.217 64.3698 315.18L65.7198 314.4C65.8598 314.32 65.8698 314.21 65.7198 314.14L64.2998 313.32C64.2287 313.283 64.1499 313.264 64.0698 313.264C63.9898 313.264 63.9109 313.283 63.8398 313.32L62.4898 314.1C62.3998 314.18 62.3798 314.29 62.4998 314.36Z" fill="#08081A"/>
<path d="M60.49 313.2L61.91 314.02C61.9793 314.057 62.0566 314.076 62.135 314.076C62.2135 314.076 62.2907 314.057 62.36 314.02L63.71 313.24C63.85 313.16 63.86 313.05 63.71 312.98L62.29 312.16C62.219 312.123 62.1401 312.104 62.06 312.104C61.98 312.104 61.9011 312.123 61.83 312.16L60.48 312.94C60.39 313 60.37 313.13 60.49 313.2Z" fill="#08081A"/>
<path d="M57.5101 311.48L59.9001 312.86C59.9694 312.897 60.0466 312.916 60.1251 312.916C60.2035 312.916 60.2808 312.897 60.3501 312.86L61.7001 312.08C61.8401 312 61.8501 311.88 61.7001 311.82L59.3101 310.44C59.2408 310.403 59.1635 310.384 59.0851 310.384C59.0066 310.384 58.9294 310.403 58.8601 310.44L57.5001 311.22C57.4101 311.3 57.3901 311.41 57.5101 311.48Z" fill="#08081A"/>
<path d="M79.6797 326.53L81.0997 327.35C81.1715 327.385 81.2501 327.403 81.3297 327.403C81.4094 327.403 81.488 327.385 81.5597 327.35L82.9097 326.56C83.0397 326.49 83.0597 326.37 82.9097 326.3L81.4897 325.48C81.4197 325.446 81.3427 325.428 81.2647 325.428C81.1867 325.428 81.1097 325.446 81.0397 325.48L79.6897 326.26C79.5797 326.35 79.5697 326.47 79.6797 326.53Z" fill="#08081A"/>
<path d="M77.6701 325.37L79.0901 326.19C79.1594 326.227 79.2366 326.246 79.3151 326.246C79.3935 326.246 79.4708 326.227 79.5401 326.19L80.9001 325.41C81.0301 325.33 81.0501 325.22 80.9001 325.15L79.4801 324.33C79.4108 324.293 79.3335 324.274 79.2551 324.274C79.1766 324.274 79.0994 324.293 79.0301 324.33L77.6701 325.11C77.5701 325.19 77.5501 325.3 77.6701 325.37Z" fill="#08081A"/>
<path d="M75.6501 324.21L77.0801 325.03C77.1494 325.067 77.2266 325.086 77.3051 325.086C77.3835 325.086 77.4608 325.067 77.5301 325.03L78.8801 324.25C79.0201 324.17 79.0301 324.05 78.8801 323.99L77.4501 323.17C77.3808 323.133 77.3035 323.114 77.2251 323.114C77.1466 323.114 77.0694 323.133 77.0001 323.17L75.6501 323.95C75.5501 324 75.5401 324.14 75.6501 324.21Z" fill="#08081A"/>
<path d="M73.6397 323.05L75.0597 323.87C75.1305 323.902 75.2072 323.918 75.2847 323.918C75.3623 323.918 75.439 323.902 75.5097 323.87L76.8697 323.08C76.9997 323.01 77.0197 322.89 76.8697 322.82L75.4797 322C75.4097 321.966 75.3328 321.948 75.2547 321.948C75.1767 321.948 75.0998 321.966 75.0297 322L73.6697 322.78C73.5397 322.86 73.5197 323 73.6397 323.05Z" fill="#08081A"/>
<path d="M71.6397 321.89L73.0597 322.71C73.1308 322.747 73.2096 322.766 73.2897 322.766C73.3697 322.766 73.4486 322.747 73.5197 322.71L74.8697 321.93C74.9997 321.85 75.0197 321.74 74.8697 321.67L73.4497 320.85C73.3804 320.813 73.3031 320.794 73.2247 320.794C73.1462 320.794 73.069 320.813 72.9997 320.85L71.6497 321.63C71.5397 321.71 71.5297 321.83 71.6397 321.89Z" fill="#08081A"/>
<path d="M69.63 320.73L71.05 321.55C71.1193 321.587 71.1966 321.606 71.275 321.606C71.3535 321.606 71.4307 321.587 71.5 321.55L72.86 320.77C72.99 320.69 73 320.57 72.86 320.51L71.44 319.69C71.3707 319.653 71.2935 319.634 71.215 319.634C71.1366 319.634 71.0593 319.653 70.99 319.69L69.63 320.47C69.53 320.55 69.51 320.66 69.63 320.73Z" fill="#08081A"/>
<path d="M67.6099 319.57L69.0299 320.39C69.1024 320.422 69.1807 320.439 69.2599 320.439C69.3391 320.439 69.4174 320.422 69.4899 320.39L70.8399 319.61C70.9799 319.53 70.9899 319.41 70.8399 319.34L69.4199 318.52C69.3491 318.488 69.2724 318.472 69.1949 318.472C69.1173 318.472 69.0407 318.488 68.9699 318.52L67.6199 319.31C67.5099 319.38 67.4999 319.5 67.6099 319.57Z" fill="#08081A"/>
<path d="M65.5998 318.4L67.0198 319.22C67.0891 319.257 67.1663 319.276 67.2448 319.276C67.3232 319.276 67.4005 319.257 67.4698 319.22L68.8298 318.44C68.9598 318.37 68.9798 318.25 68.8298 318.18L67.4098 317.36C67.3405 317.323 67.2632 317.304 67.1848 317.304C67.1063 317.304 67.0291 317.323 66.9598 317.36L65.5998 318.14C65.4998 318.22 65.4798 318.34 65.5998 318.4Z" fill="#08081A"/>
<path d="M63.5899 317.24L65.0099 318.06C65.0792 318.097 65.1565 318.116 65.2349 318.116C65.3134 318.116 65.3906 318.097 65.4599 318.06L66.8099 317.28C66.9499 317.2 66.9599 317.09 66.8099 317.02L65.3899 316.2C65.3189 316.163 65.24 316.144 65.1599 316.144C65.0799 316.144 65.001 316.163 64.9299 316.2L63.5799 316.98C63.4799 317.06 63.4699 317.17 63.5899 317.24Z" fill="#08081A"/>
<path d="M61.5698 316.08L62.9898 316.9C63.0598 316.934 63.1368 316.952 63.2148 316.952C63.2928 316.952 63.3698 316.934 63.4398 316.9L64.7998 316.12C64.9298 316.04 64.9498 315.92 64.7998 315.86L63.4098 315C63.3398 314.966 63.2628 314.948 63.1848 314.948C63.1068 314.948 63.0298 314.966 62.9598 315L61.5998 315.79C61.4698 315.89 61.4598 316 61.5698 316.08Z" fill="#08081A"/>
<path d="M59.5597 314.91L60.9797 315.73C61.0497 315.764 61.1267 315.782 61.2047 315.782C61.2827 315.782 61.3597 315.764 61.4297 315.73L62.7897 314.94C62.9197 314.87 62.9297 314.75 62.7897 314.68L61.3697 313.86C61.2997 313.826 61.2227 313.808 61.1447 313.808C61.0667 313.808 60.9897 313.826 60.9197 313.86L59.5597 314.64C59.4597 314.73 59.4397 314.85 59.5597 314.91Z" fill="#08081A"/>
<path d="M57.5401 313.75L58.9601 314.57C59.0311 314.607 59.11 314.626 59.1901 314.626C59.2701 314.626 59.349 314.607 59.4201 314.57L60.7701 313.79C60.9101 313.71 60.9201 313.6 60.7701 313.53L59.3501 312.71C59.2808 312.673 59.2035 312.654 59.1251 312.654C59.0466 312.654 58.9694 312.673 58.9001 312.71L57.5501 313.49C57.4401 313.57 57.4301 313.69 57.5401 313.75Z" fill="#08081A"/>
<path d="M81.7 327.7L84.09 329.08C84.1608 329.112 84.2375 329.128 84.315 329.128C84.3926 329.128 84.4692 329.112 84.54 329.08L85.89 328.3C86.03 328.22 86.04 328.1 85.89 328.03L83.5 326.65C83.4292 326.618 83.3526 326.602 83.275 326.602C83.1975 326.602 83.1208 326.618 83.05 326.65L81.69 327.44C81.6 327.51 81.58 327.63 81.7 327.7Z" fill="#08081A"/>
<path d="M57.3799 311.54L58.7999 312.36C58.9099 312.42 58.9099 312.53 58.7999 312.6L57.3599 313.43C57.2945 313.462 57.2227 313.478 57.1499 313.478C57.0771 313.478 57.0053 313.462 56.9399 313.43L56.8299 313.36C56.7691 313.331 56.7024 313.316 56.6349 313.316C56.5674 313.316 56.5007 313.331 56.4399 313.36L54.9299 314.24C54.8652 314.274 54.7931 314.292 54.7199 314.292C54.6467 314.292 54.5746 314.274 54.5099 314.24L53.5999 313.72C53.5768 313.708 53.5573 313.69 53.5437 313.668C53.5301 313.646 53.5229 313.621 53.5229 313.595C53.5229 313.569 53.5301 313.544 53.5437 313.522C53.5573 313.5 53.5768 313.482 53.5999 313.47L55.0199 312.66L55.3099 312.49L55.5199 312.36L55.7399 312.24L56.9599 311.54C57.0246 311.506 57.0967 311.488 57.1699 311.488C57.2431 311.488 57.3152 311.506 57.3799 311.54Z" fill="#08081A"/>
<path d="M76.8098 331.63L78.2298 332.45C78.2998 332.484 78.3767 332.502 78.4548 332.502C78.5328 332.502 78.6097 332.484 78.6798 332.45L80.0398 331.67C80.1698 331.59 80.1898 331.47 80.0398 331.4L78.6198 330.58C78.549 330.548 78.4723 330.532 78.3948 330.532C78.3172 330.532 78.2405 330.548 78.1698 330.58L76.8098 331.37C76.7098 331.44 76.6998 331.56 76.8098 331.63Z" fill="#08081A"/>
<path d="M74.8097 330.47L76.2297 331.29C76.299 331.327 76.3762 331.346 76.4547 331.346C76.5331 331.346 76.6104 331.327 76.6797 331.29L78.0297 330.51C78.1697 330.43 78.1797 330.31 78.0297 330.25L76.6097 329.43C76.5386 329.393 76.4597 329.374 76.3797 329.374C76.2996 329.374 76.2207 329.393 76.1497 329.43L74.7997 330.21C74.6997 330.29 74.6897 330.4 74.8097 330.47Z" fill="#08081A"/>
<path d="M72.8 329.31L74.22 330.13C74.2893 330.167 74.3665 330.186 74.445 330.186C74.5234 330.186 74.6007 330.167 74.67 330.13L76.03 329.35C76.16 329.27 76.18 329.16 76.03 329.09L74.61 328.27C74.5407 328.233 74.4634 328.214 74.385 328.214C74.3065 328.214 74.2293 328.233 74.16 328.27L72.8 329.05C72.7 329.13 72.69 329.25 72.8 329.31Z" fill="#08081A"/>
<path d="M55.7298 319.45L57.1498 320.27C57.2198 320.304 57.2968 320.322 57.3748 320.322C57.4528 320.322 57.5298 320.304 57.5998 320.27L58.9498 319.48C59.0898 319.41 59.0998 319.29 58.9498 319.22L57.5298 318.4C57.4587 318.363 57.3798 318.344 57.2998 318.344C57.2197 318.344 57.1409 318.363 57.0698 318.4L55.7198 319.18C55.6298 319.27 55.6098 319.39 55.7298 319.45Z" fill="#08081A"/>
<path d="M53.7199 318.3L55.1399 319.12C55.2099 319.154 55.2869 319.172 55.3649 319.172C55.4429 319.172 55.5199 319.154 55.5899 319.12L56.9499 318.34C57.0799 318.26 57.0999 318.14 56.9499 318.07L55.5299 317.25C55.4591 317.218 55.3825 317.202 55.3049 317.202C55.2274 317.202 55.1507 317.218 55.0799 317.25L53.7199 318.04C53.6199 318.11 53.6099 318.23 53.7199 318.3Z" fill="#08081A"/>
<path d="M51.72 317.14L53.14 317.96C53.2093 317.997 53.2866 318.016 53.365 318.016C53.4435 318.016 53.5207 317.997 53.59 317.96L54.94 317.18C55.08 317.1 55.09 316.98 54.94 316.92L53.52 316.1C53.4489 316.063 53.3701 316.044 53.29 316.044C53.21 316.044 53.1311 316.063 53.06 316.1L51.71 316.88C51.62 317 51.6 317.07 51.72 317.14Z" fill="#08081A"/>
<path d="M49.7097 316L51.1297 316.82C51.199 316.857 51.2762 316.876 51.3547 316.876C51.4331 316.876 51.5104 316.857 51.5797 316.82L52.9397 316.04C53.0697 315.96 53.0897 315.85 52.9397 315.78L51.5197 314.96C51.4504 314.923 51.3731 314.904 51.2947 314.904C51.2162 314.904 51.139 314.923 51.0697 314.96L49.7097 315.74C49.6097 315.8 49.5997 315.91 49.7097 316Z" fill="#08081A"/>
<path d="M70.2801 327.86L72.2201 329C72.2901 329.034 72.3671 329.052 72.4451 329.052C72.5231 329.052 72.6001 329.034 72.6701 329L74.0201 328.21C74.1601 328.14 74.1701 328.02 74.0201 327.95L72.0801 326.83C72.0093 326.798 71.9326 326.782 71.8551 326.782C71.7775 326.782 71.7009 326.798 71.6301 326.83L70.2701 327.62C70.1801 327.67 70.1601 327.79 70.2801 327.86Z" fill="#08081A"/>
<path d="M57.7297 320.61L59.6697 321.73C59.739 321.767 59.8162 321.786 59.8947 321.786C59.9731 321.786 60.0504 321.767 60.1197 321.73L61.4797 320.95C61.6097 320.87 61.6197 320.75 61.4797 320.69L59.5397 319.57C59.4704 319.533 59.3931 319.514 59.3147 319.514C59.2362 319.514 59.159 319.533 59.0897 319.57L57.7297 320.35C57.6297 320.43 57.6197 320.54 57.7297 320.61Z" fill="#08081A"/>
<path d="M60.25 322.07L69.7 327.52C69.7693 327.557 69.8465 327.576 69.925 327.576C70.0034 327.576 70.0807 327.557 70.15 327.52L71.5 326.74C71.64 326.66 71.65 326.54 71.5 326.48L62.09 321C62.02 320.966 61.943 320.948 61.865 320.948C61.787 320.948 61.71 320.966 61.64 321L60.29 321.79C60.15 321.88 60.14 322 60.25 322.07Z" fill="#08081A"/>
<path d="M77.1901 327.34L78.6101 328.16C78.6794 328.197 78.7566 328.216 78.8351 328.216C78.9135 328.216 78.9908 328.197 79.0601 328.16L80.4201 327.38C80.5501 327.31 80.5601 327.19 80.4201 327.12L79.0001 326.28C78.9308 326.243 78.8535 326.224 78.7751 326.224C78.6966 326.224 78.6194 326.243 78.5501 326.28L77.1901 327.06C77.0901 327.16 77.0701 327.28 77.1901 327.34Z" fill="#08081A"/>
<path d="M75.1798 326.18L76.5998 327C76.6698 327.034 76.7467 327.052 76.8248 327.052C76.9028 327.052 76.9797 327.034 77.0498 327L78.4098 326.21C78.5398 326.14 78.5598 326.02 78.4098 325.95L76.9998 325.12C76.9305 325.083 76.8532 325.064 76.7748 325.064C76.6963 325.064 76.6191 325.083 76.5498 325.12L75.1898 325.9C75.0798 326 75.0598 326.12 75.1798 326.18Z" fill="#08081A"/>
<path d="M73.17 325L74.59 325.82C74.66 325.854 74.737 325.872 74.815 325.872C74.893 325.872 74.97 325.854 75.04 325.82L76.4 325C76.53 324.93 76.55 324.81 76.4 324.74L75 324C74.93 323.966 74.853 323.948 74.775 323.948C74.697 323.948 74.62 323.966 74.55 324L73.19 324.78C73.07 324.84 73.05 325 73.17 325Z" fill="#08081A"/>
<path d="M71.1601 323.86L72.5801 324.68C72.6501 324.714 72.7271 324.732 72.8051 324.732C72.8831 324.732 72.9601 324.714 73.0301 324.68L74.3901 323.89C74.5201 323.82 74.5401 323.7 74.3901 323.63L73.0001 322.8C72.9301 322.766 72.8531 322.748 72.7751 322.748C72.6971 322.748 72.6201 322.766 72.5501 322.8L71.1901 323.58C71.0601 323.68 71.0501 323.8 71.1601 323.86Z" fill="#08081A"/>
<path d="M69.1501 322.71L70.5701 323.53C70.6426 323.562 70.7209 323.578 70.8001 323.578C70.8793 323.578 70.9577 323.562 71.0301 323.53L72.3801 322.74C72.5201 322.67 72.5301 322.55 72.3801 322.48L71.0001 321.64C70.9301 321.606 70.8532 321.588 70.7751 321.588C70.6971 321.588 70.6202 321.606 70.5501 321.64L69.2001 322.42C69.0501 322.52 69.0001 322.64 69.1501 322.71Z" fill="#08081A"/>
<path d="M67.1499 321.55L68.5699 322.37C68.6407 322.402 68.7174 322.418 68.7949 322.418C68.8725 322.418 68.9492 322.402 69.0199 322.37L70.3699 321.58C70.5099 321.51 70.5199 321.39 70.3699 321.32L68.9999 320.48C68.9275 320.448 68.8491 320.432 68.7699 320.432C68.6907 320.432 68.6124 320.448 68.5399 320.48L67.1899 321.26C66.9999 321.36 66.9999 321.48 67.1499 321.55Z" fill="#08081A"/>
<path d="M65.14 320.39L66.56 321.21C66.6308 321.242 66.7074 321.258 66.785 321.258C66.8625 321.258 66.9392 321.242 67.01 321.21L68.36 320.43C68.5 320.35 68.51 320.23 68.36 320.16L67 319.32C66.9275 319.288 66.8492 319.272 66.77 319.272C66.6908 319.272 66.6125 319.288 66.54 319.32L65.19 320.11C65 320.2 65 320.32 65.14 320.39Z" fill="#08081A"/>
<path d="M63.1301 319.23L64.5501 320.05C64.6201 320.084 64.6971 320.102 64.7751 320.102C64.8531 320.102 64.9301 320.084 65.0001 320.05L66.3601 319.27C66.4901 319.19 66.5001 319.07 66.3601 319L65.0001 318.16C64.9294 318.128 64.8527 318.112 64.7751 318.112C64.6976 318.112 64.6209 318.128 64.5501 318.16L63.1901 318.95C63.0001 319 63.0001 319.16 63.1301 319.23Z" fill="#08081A"/>
<path d="M61.1199 318.07L62.5399 318.89C62.6099 318.924 62.6868 318.942 62.7649 318.942C62.8429 318.942 62.9198 318.924 62.9899 318.89L64.3499 318.11C64.4799 318.03 64.4999 317.91 64.3499 317.84L62.9999 317C62.9291 316.968 62.8524 316.952 62.7749 316.952C62.6973 316.952 62.6206 316.968 62.5499 317L61.1899 317.79C60.9999 317.88 60.9999 318 61.1199 318.07Z" fill="#08081A"/>
<path d="M59.1097 316.91L60.5297 317.73C60.5997 317.764 60.6767 317.782 60.7547 317.782C60.8327 317.782 60.9097 317.764 60.9797 317.73L62.3397 316.95C62.4697 316.87 62.4897 316.75 62.3397 316.69L60.9997 315.85C60.9297 315.816 60.8527 315.798 60.7747 315.798C60.6967 315.798 60.6197 315.816 60.5497 315.85L59.1897 316.64C58.9997 316.72 58.9997 316.84 59.1097 316.91Z" fill="#08081A"/>
<path d="M57.0997 315.75L58.5197 316.57C58.5914 316.605 58.67 316.623 58.7497 316.623C58.8293 316.623 58.9079 316.605 58.9797 316.57L60.3297 315.79C60.4597 315.71 60.4797 315.59 60.3297 315.53L58.9097 314.71C58.8397 314.676 58.7627 314.658 58.6847 314.658C58.6067 314.658 58.5297 314.676 58.4597 314.71L57.1097 315.5C56.9997 315.56 56.9997 315.68 57.0997 315.75Z" fill="#08081A"/>
<path d="M55.0897 314.59L56.5097 315.41C56.5808 315.447 56.6597 315.466 56.7397 315.466C56.8198 315.466 56.8987 315.447 56.9697 315.41L58.3197 314.63C58.4597 314.55 58.4697 314.43 58.3197 314.37L56.8997 313.55C56.8297 313.516 56.7528 313.498 56.6747 313.498C56.5967 313.498 56.5197 313.516 56.4497 313.55L55.0997 314.34C54.9997 314.4 54.9997 314.52 55.0897 314.59Z" fill="#08081A"/>
<path d="M79.1998 328.5L82.1298 330.2C82.2009 330.237 82.2798 330.256 82.3598 330.256C82.4399 330.256 82.5187 330.237 82.5898 330.2L83.9398 329.42C84.0698 329.34 84.0898 329.22 83.9398 329.16L80.9998 327.44C80.9287 327.403 80.8498 327.384 80.7698 327.384C80.6898 327.384 80.6109 327.403 80.5398 327.44L79.1898 328.22C79.0898 328.32 79.0798 328.44 79.1998 328.5Z" fill="#08081A"/>
<path d="M76.2398 329L77.6598 329.82C77.7298 329.854 77.8068 329.872 77.8848 329.872C77.9628 329.872 78.0398 329.854 78.1098 329.82L79.4598 329.03C79.5998 328.96 79.6098 328.84 79.4598 328.77L78.0798 328C78.0081 327.965 77.9295 327.948 77.8498 327.948C77.7702 327.948 77.6916 327.965 77.6198 328L76.2698 328.78C76.1298 328.86 76.1198 329 76.2398 329Z" fill="#08081A"/>
<path d="M74.2301 327.89L75.6501 328.71C75.7209 328.742 75.7976 328.758 75.8751 328.758C75.9527 328.758 76.0294 328.742 76.1001 328.71L77.4601 327.92C77.5901 327.85 77.6001 327.73 77.4601 327.66L76.0401 326.84C75.9701 326.806 75.8931 326.788 75.8151 326.788C75.7371 326.788 75.6601 326.806 75.5901 326.84L74.2301 327.62C74.1301 327.7 74.1101 327.82 74.2301 327.89Z" fill="#08081A"/>
<path d="M72.2199 326.73L73.6399 327.55C73.7106 327.582 73.7873 327.598 73.8649 327.598C73.9424 327.598 74.0191 327.582 74.0899 327.55L75.4499 326.76C75.5799 326.69 75.5999 326.57 75.4499 326.5L74.0299 325.68C73.9599 325.646 73.8829 325.628 73.8049 325.628C73.7269 325.628 73.6499 325.646 73.5799 325.68L72.2199 326.46C72.1199 326.54 72.0999 326.66 72.2199 326.73Z" fill="#08081A"/>
<path d="M70.2097 325.57L71.6297 326.39C71.7004 326.422 71.7771 326.438 71.8547 326.438C71.9322 326.438 72.0089 326.422 72.0797 326.39L73.4397 325.61C73.5697 325.53 73.5897 325.41 73.4397 325.34L72.0197 324.52C71.9489 324.488 71.8722 324.472 71.7947 324.472C71.7171 324.472 71.6404 324.488 71.5697 324.52L70.2097 325.31C70.1097 325.38 70.0997 325.5 70.2097 325.57Z" fill="#08081A"/>
<path d="M68.1999 324.41L69.6199 325.23C69.6916 325.265 69.7703 325.283 69.8499 325.283C69.9295 325.283 70.0081 325.265 70.0799 325.23L71.4299 324.45C71.5599 324.37 71.5799 324.25 71.4299 324.18L69.9999 323.34C69.9291 323.308 69.8524 323.292 69.7749 323.292C69.6973 323.292 69.6207 323.308 69.5499 323.34L68.1999 324.13C68.0999 324.22 68.0899 324.34 68.1999 324.41Z" fill="#08081A"/>
<path d="M66.19 323.25L67.62 324.07C67.69 324.104 67.767 324.122 67.845 324.122C67.923 324.122 68 324.104 68.07 324.07L69.42 323.29C69.56 323.21 69.57 323.09 69.42 323.03L68 322.19C67.93 322.156 67.853 322.138 67.775 322.138C67.697 322.138 67.62 322.156 67.55 322.19L66.2 322.98C66.09 323.06 66.08 323.18 66.19 323.25Z" fill="#08081A"/>
<path d="M64.1901 322.09L65.6101 322.91C65.6794 322.947 65.7566 322.966 65.8351 322.966C65.9135 322.966 65.9908 322.947 66.0601 322.91L67.4101 322.13C67.5501 322.05 67.5601 321.93 67.4101 321.87L66.0001 321C65.9283 320.965 65.8497 320.948 65.7701 320.948C65.6904 320.948 65.6118 320.965 65.5401 321L64.1901 321.79C64.0901 321.9 64.0701 322 64.1901 322.09Z" fill="#08081A"/>
<path d="M62.1798 320.93L63.5998 321.75C63.6691 321.787 63.7463 321.806 63.8248 321.806C63.9032 321.806 63.9805 321.787 64.0498 321.75L65.4098 320.97C65.5398 320.89 65.5498 320.77 65.4098 320.71L63.9998 319.87C63.9305 319.833 63.8532 319.814 63.7748 319.814C63.6963 319.814 63.6191 319.833 63.5498 319.87L62.1898 320.65C62.0798 320.75 62.0598 320.86 62.1798 320.93Z" fill="#08081A"/>
<path d="M60.17 319.77L61.59 320.59C61.6593 320.627 61.7365 320.646 61.815 320.646C61.8934 320.646 61.9707 320.627 62.04 320.59L63.4 319.81C63.53 319.73 63.55 319.61 63.4 319.55L62 318.71C61.9307 318.673 61.8534 318.654 61.775 318.654C61.6965 318.654 61.6193 318.673 61.55 318.71L60.19 319.49C60.07 319.59 60.05 319.7 60.17 319.77Z" fill="#08081A"/>
<path d="M58.1601 318.61L59.5801 319.43C59.6494 319.467 59.7267 319.486 59.8051 319.486C59.8836 319.486 59.9608 319.467 60.0301 319.43L61.3901 318.65C61.5201 318.57 61.5401 318.45 61.3901 318.39L60.0001 317.55C59.9308 317.513 59.8536 317.494 59.7751 317.494C59.6967 317.494 59.6194 317.513 59.5501 317.55L58.2001 318.33C58.0601 318.43 58.0501 318.54 58.1601 318.61Z" fill="#08081A"/>
<path d="M56.1501 317.45L57.5701 318.27C57.6412 318.307 57.7201 318.326 57.8001 318.326C57.8802 318.326 57.9591 318.307 58.0301 318.27L59.3801 317.49C59.5201 317.41 59.5301 317.3 59.3801 317.23L58.0001 316.39C57.9308 316.353 57.8536 316.334 57.7751 316.334C57.6967 316.334 57.6194 316.353 57.5501 316.39L56.2001 317.17C56.0501 317.27 56.0001 317.38 56.1501 317.45Z" fill="#08081A"/>
<path d="M51.66 314.86L55.57 317.11C55.6393 317.147 55.7165 317.166 55.795 317.166C55.8734 317.166 55.9507 317.147 56.02 317.11L57.37 316.33C57.51 316.25 57.52 316.14 57.37 316.07L53.46 313.81C53.3892 313.778 53.3125 313.762 53.235 313.762C53.1574 313.762 53.0807 313.778 53.01 313.81L51.65 314.6C51.56 314.67 51.54 314.79 51.66 314.86Z" fill="#08081A"/>
<path d="M78.2398 330.2L80.1798 331.32C80.2491 331.357 80.3263 331.376 80.4048 331.376C80.4832 331.376 80.5605 331.357 80.6298 331.32L81.9898 330.54C82.1198 330.46 82.1398 330.35 81.9898 330.28L80.0498 329.16C79.9805 329.123 79.9032 329.104 79.8248 329.104C79.7463 329.104 79.6691 329.123 79.5998 329.16L78.2498 329.94C78.1398 330 78.1298 330.14 78.2398 330.2Z" fill="#08081A"/>
<path d="M93.1597 326L60.9297 307.4V282.05L61.1797 281.49L61.4397 281.35C61.78 281.158 62.164 281.057 62.5547 281.057C62.9453 281.057 63.3294 281.158 63.6697 281.35L93.1597 298.35C93.4983 298.545 93.7792 298.827 93.9741 299.166C94.169 299.505 94.271 299.889 94.2697 300.28V324.06C94.0697 325.32 93.8497 325.61 93.1597 326Z" fill="#E5E5E5"/>
<path d="M90.1997 301.45L60.9297 282.9V282.05L61.1797 281.49L61.4397 281.35C61.78 281.158 62.164 281.057 62.5547 281.057C62.9453 281.057 63.3294 281.158 63.6697 281.35L93.1597 298.35C93.5189 298.559 93.8131 298.864 94.0097 299.23L90.1997 301.45Z" fill="#E5E5E5"/>
<path d="M61.6698 281.48L92.6698 299.35C92.8346 299.445 92.9714 299.582 93.0662 299.747C93.1611 299.912 93.2106 300.1 93.2098 300.29V326L60.9298 307.4V281.91C60.9282 281.823 60.95 281.737 60.9929 281.661C61.0357 281.585 61.0981 281.522 61.1735 281.478C61.2489 281.434 61.3347 281.411 61.4219 281.411C61.5092 281.412 61.5947 281.435 61.6698 281.48V281.48Z" fill="#DCEEFF"/>
<path d="M61.6698 281.48L92.6698 299.35C92.8346 299.445 92.9714 299.582 93.0662 299.747C93.1611 299.912 93.2106 300.1 93.2098 300.29V326L60.9298 307.4V281.91C60.9282 281.823 60.95 281.737 60.9929 281.661C61.0357 281.585 61.0981 281.522 61.1735 281.478C61.2489 281.434 61.3347 281.411 61.4219 281.411C61.5092 281.412 61.5947 281.435 61.6698 281.48V281.48Z" fill="#F4F4F4"/>
<path d="M93.1597 326.01V325.09L60.9297 306.48V307.4L93.1597 326.01Z" fill="#DBDBDB"/>
<path d="M62.1597 283.04V305.86L92.1197 323.11V300.34L62.1597 283.04Z" fill="#1E212D"/>
<path d="M8.65974 303.64C8.38974 306.04 5.52974 316.36 6.14974 319.89C6.76974 323.42 16.5097 329.34 16.5097 329.34L17.8597 323.34L12.4597 318L13.9197 308L8.65974 303.64Z" fill="#FFCEA9"/>
<path d="M16.2097 293.47C15.2608 293.031 14.1839 292.956 13.1831 293.258C12.1823 293.56 11.3271 294.219 10.7797 295.11C9.33973 297.49 7.84973 305.64 7.71973 307C7.71973 307 9.71973 309.78 12.7197 309.32L16.2097 293.47Z" fill="#EDEDED"/>
<path d="M27.3397 408.56C29.4624 409.144 31.7299 408.868 33.6497 407.79C35.1697 407.79 43.4297 404.31 44.5497 407.27C45.5497 409.87 41.9597 412.27 40.0497 412.74C35.8797 413.74 32.7997 415.83 31.1197 416.18C29.8697 416.44 28.2597 416.61 27.2697 415.63C26.0697 414.46 26.1797 410.11 27.3397 408.56Z" fill="#38226D"/>
<path d="M31.1197 415.46C32.7997 415.11 35.8797 413.03 40.0497 412.02C41.6497 411.63 44.3997 409.88 44.6797 407.79C45.0497 410.19 41.8297 412.31 40.0497 412.74C35.8797 413.74 32.7997 415.83 31.1197 416.18C29.8697 416.44 28.2597 416.61 27.2697 415.63C27.0067 415.347 26.8177 415.004 26.7197 414.63C27.3382 415.101 28.0578 415.421 28.8216 415.565C29.5854 415.709 30.3723 415.673 31.1197 415.46V415.46Z" fill="#7F70F1"/>
<path d="M13.9997 402.55C16.1225 403.132 18.3891 402.855 20.3097 401.78C21.8297 401.83 30.0797 398.3 31.1997 401.26C32.1997 403.86 28.6097 406.26 26.6997 406.73C22.5397 407.73 19.4497 409.82 17.7797 410.17C16.5297 410.43 14.9197 410.6 13.9197 409.62C12.6897 408.45 12.7897 404.1 13.9997 402.55Z" fill="#38226D"/>
<path d="M17.7398 409.45C19.4098 409.1 22.4998 407.02 26.6598 406.01C28.2598 405.62 31.0198 403.87 31.2998 401.78C31.6698 404.18 28.4498 406.3 26.6598 406.78C22.4998 407.78 19.4098 409.87 17.7398 410.22C16.4898 410.48 14.8798 410.65 13.8798 409.67C13.6201 409.386 13.4345 409.043 13.3398 408.67C13.9625 409.132 14.6842 409.444 15.4479 409.579C16.2115 409.714 16.9962 409.67 17.7398 409.45V409.45Z" fill="#7F70F1"/>
<path d="M13.7999 380.13C14.1516 377.077 14.7876 374.064 15.6999 371.13C15.6999 371.13 15.1299 363.33 14.8499 355.93C14.5199 347.54 11.6099 340.16 13.9099 333.46L39.7999 339.22C39.7999 339.22 38.2399 372.67 37.8899 376.72C37.6974 379.874 37.31 383.014 36.7299 386.12C35.5499 392.61 33.6299 408.06 33.6299 408.06C30.8899 409.65 27.2899 408.77 27.2899 408.77C27.2899 408.77 27.4899 389.23 27.6699 384.55C27.8799 378.84 28.0599 379.28 28.0599 379.28L27.1999 365L26.6399 357.92C26.6399 357.92 25.9199 363.12 25.4599 367.76C25.0499 371.81 24.0699 375.47 22.9799 383C22.0399 389.54 20.4999 402.67 20.4999 402.67C17.7599 404.26 14.0399 402.94 14.0399 402.94C14.0399 402.94 13.0599 385.8 13.7999 380.13Z" fill="#4E4C88"/>
<path d="M17.5799 293.61C19.5799 293.71 21.0199 294.22 21.2599 293.61C21.4764 292.594 21.6267 291.565 21.7099 290.53C21.4899 289.96 21.2899 289.35 21.2899 289.35C18.8099 287.82 18.0299 285.15 17.7099 282.03C17.1499 276.7 20.0299 272.03 25.3599 271.48C30.3599 270.96 34.0499 274.48 35.0299 279.31C35.5599 281.7 36.6099 286.21 35.1899 290.13C34.3899 292.33 33.3699 294.07 32.3399 294.41C31.3358 294.38 30.3341 294.294 29.3399 294.15C29.3399 294.15 29.0699 295.63 28.8899 296.58C28.7099 297.53 28.7799 298.03 30.6699 299.19C32.5599 300.35 27.8099 302.75 24.6699 302.52C21.5299 302.29 18.0699 300.41 17.1199 298.4C16.1299 296.18 16.2199 293.55 17.5799 293.61Z" fill="#FFCEA9"/>
<path d="M20.4299 293.9C19.8799 295.27 21.2699 296.9 24.9799 298.1C28.6899 299.3 28.9799 297.76 28.9799 297.76C31.4455 298.865 33.849 300.104 36.1799 301.47C38.3999 303.03 39.3899 307.47 39.6899 315.11C40.0299 323.9 40.0599 336.93 39.7699 339.18C39.7699 339.18 35.6199 343.32 30.2999 342.88C24.9799 342.44 16.0399 337.74 13.8699 334.11C13.9299 326.41 14.8699 325.11 13.5899 320.71C10.7299 310.56 9.22988 306.4 10.5899 299.65C11.7299 294.08 13.3299 293.39 15.5299 293.45C17.1702 293.511 18.8059 293.661 20.4299 293.9V293.9Z" fill="#F4F4F4"/>
<path d="M48.0697 322.38C43.7097 323.48 42.6897 320.72 42.0697 318.45C40.6897 312.93 39.9397 307.95 38.8997 304.82C37.6897 301.13 36.4097 300.54 34.6097 299.82C32.5097 298.98 30.6997 300.76 31.3997 305.46C32.2662 310.899 33.6046 316.253 35.3997 321.46C35.9497 323.18 37.1697 326.23 38.9897 327.71C41.2397 329.53 44.6297 329.45 49.7597 328.17C51.9397 327.63 54.3397 326.32 58.4797 324.39C59.5897 323.87 60.4797 323.53 62.5897 322.54C64.7288 321.576 66.6049 320.111 68.0597 318.27C69.1697 316.65 69.3197 315.89 69.0597 315.52C68.7997 315.15 68.2697 315.16 67.6797 315.84C66.8139 316.989 65.7507 317.974 64.5397 318.75C64.5397 318.75 65.9097 317.32 66.6597 316.4C67.3264 315.577 67.8812 314.669 68.3097 313.7C68.6997 312.76 67.8897 311.48 67.3097 312.15C66.7297 312.82 66.3897 313.51 65.3097 314.86C64.7229 315.581 64.0514 316.229 63.3097 316.79C64.0122 315.842 64.6376 314.838 65.1797 313.79C65.6592 312.97 65.8951 312.03 65.8597 311.08C65.8597 310.59 65.1297 310 64.4697 310.94C63.838 312.224 63.0522 313.426 62.1297 314.52C61.1297 315.52 60.2897 316.15 60.2597 315.86C60.2297 315.57 60.8697 315 61.2597 313.8C61.6497 312.6 61.2597 311.32 60.5997 311.19C59.9397 311.06 60.0597 311.08 59.5197 312.19C58.7835 313.35 58.1157 314.552 57.5197 315.79C57.1834 316.95 56.569 318.011 55.7297 318.88C54.5897 320.07 52.2197 321.33 48.0697 322.38Z" fill="#FFCEA9"/>
<path d="M32.9996 299.07C35.9096 298.64 37.9996 299.95 39.2596 304.36C40.5196 308.77 41.4396 312.36 41.4396 312.36C40.289 314.026 38.5418 315.186 36.5596 315.6C33.0796 316.45 31.8196 314.78 31.8196 314.78C31.8196 314.78 30.8196 310.16 30.2496 307.01C29.6796 303.86 29.4396 299.6 32.9996 299.07Z" fill="#EDEDED"/>
<path d="M34.8598 278.63C34.8598 278.63 39.4598 271.63 29.4898 270.2C22.2998 269.2 17.6798 273.8 17.1398 278.81C16.6298 283.6 19.5798 288.58 21.7098 290.55C22.7098 290.92 24.9898 291.14 27.9298 289.8C28.0488 288.497 28.0956 287.188 28.0698 285.88C28.0698 285.88 24.5598 278.5 34.8598 278.63Z" fill="#3A2C6D"/>
</g>
<defs>
<clipPath id="clip0_25_769">
<rect width="500" height="428.3" fill="white"/>
</clipPath>
</defs>
</svg>
